<svg width="48" height="38" viewBox="0 0 48 38" fill="none" xmlns="http://www.w3.org/2000/svg">
<path d="M10.1472 29.4614C4.9462 29.4614 0.724854 27.991 0.724854 26.1768V30.1291C0.724854 31.9433 4.94383 33.4147 10.1472 33.4147C15.3506 33.4147 19.5696 31.9433 19.5696 30.1291V26.1768C19.5705 27.991 15.3525 29.4614 10.1472 29.4614Z" fill="transparent"/>
<path d="M9.42237 25.9167C4.22134 25.9167 0 24.4453 0 22.6306V26.6562C0 28.4704 4.21898 29.9409 9.42237 29.9409C14.6258 29.9409 18.8447 28.4704 18.8447 26.6562V22.6306C18.8457 24.4453 14.6276 25.9167 9.42237 25.9167Z" fill="transparent"/>
<path d="M10.1473 33.9583C5.31599 33.9583 0.181641 32.6169 0.181641 30.1285V26.1762C0.181641 26.032 0.238925 25.8937 0.340897 25.7917C0.442869 25.6897 0.581171 25.6324 0.725381 25.6324C0.869591 25.6324 1.00789 25.6897 1.10987 25.7917C1.21184 25.8937 1.26912 26.032 1.26912 26.1762C1.26912 27.3204 4.64648 28.9185 10.1477 28.9185C15.649 28.9185 19.0264 27.3218 19.0264 26.1762C19.0264 26.032 19.0836 25.8937 19.1856 25.7917C19.2876 25.6897 19.4259 25.6324 19.5701 25.6324C19.7143 25.6324 19.8526 25.6897 19.9546 25.7917C20.0566 25.8937 20.1138 26.032 20.1138 26.1762V30.0566C20.1143 32.6179 14.98 33.9583 10.1473 33.9583ZM1.26865 27.9913V30.0576C1.26865 31.2746 4.64601 32.8713 10.1473 32.8713C15.6485 32.8713 19.0259 31.2746 19.0259 30.129V27.9909C17.2632 29.3091 13.6268 30.0051 10.1473 30.0051C6.66779 30.0051 3.03322 29.3081 1.2696 27.9913H1.26865Z" fill="transparent"/>
<path d="M10.1473 33.9583C5.31599 33.9583 0.181641 32.6169 0.181641 30.1285V26.1762C0.181641 26.032 0.238925 25.8937 0.340897 25.7917C0.442869 25.6897 0.581171 25.6324 0.725381 25.6324C0.869591 25.6324 1.00789 25.6897 1.10987 25.7917C1.21184 25.8937 1.26912 26.032 1.26912 26.1762C1.26912 27.3204 4.64648 28.9185 10.1477 28.9185C15.649 28.9185 19.0264 27.3218 19.0264 26.1762C19.0264 26.032 19.0836 25.8937 19.1856 25.7917C19.2876 25.6897 19.4259 25.6324 19.5701 25.6324C19.7143 25.6324 19.8526 25.6897 19.9546 25.7917C20.0566 25.8937 20.1138 26.032 20.1138 26.1762V30.0566C20.1143 32.6179 14.98 33.9583 10.1473 33.9583ZM1.26865 27.9913V30.0576C1.26865 31.2746 4.64601 32.8713 10.1473 32.8713C15.6485 32.8713 19.0259 31.2746 19.0259 30.129V27.9909C17.2632 29.3091 13.6268 30.0051 10.1473 30.0051C6.66779 30.0051 3.03322 29.3081 1.2696 27.9913H1.26865Z" fill="#227648"/>
<path d="M10.1473 30.468C5.31599 30.468 0.181641 29.1266 0.181641 26.6382V22.6126C0.181641 22.4684 0.238925 22.3301 0.340897 22.2281C0.442869 22.1261 0.581171 22.0688 0.725381 22.0688C0.869591 22.0688 1.00789 22.1261 1.10987 22.2281C1.21184 22.3301 1.26912 22.4684 1.26912 22.6126C1.26912 23.7578 4.64648 25.3549 10.1477 25.3549C15.649 25.3549 19.0264 23.7573 19.0264 22.6126C19.0264 22.4684 19.0836 22.3301 19.1856 22.2281C19.2876 22.1261 19.4259 22.0688 19.5701 22.0688C19.7143 22.0688 19.8526 22.1261 19.9546 22.2281C20.0566 22.3301 20.1138 22.4684 20.1138 22.6126V26.5654C20.1143 29.128 14.98 30.468 10.1473 30.468ZM1.26865 24.4292V26.5672C1.26865 27.7843 4.64601 29.381 10.1473 29.381C15.6485 29.381 19.0259 27.7843 19.0259 26.6386V24.4282C17.2632 25.7474 13.6268 26.4429 10.1473 26.4429C6.66779 26.4429 3.03322 25.7483 1.2696 24.4292H1.26865Z" fill="transparent"/>
<path d="M10.1473 30.468C5.31599 30.468 0.181641 29.1266 0.181641 26.6382V22.6126C0.181641 22.4684 0.238925 22.3301 0.340897 22.2281C0.442869 22.1261 0.581171 22.0688 0.725381 22.0688C0.869591 22.0688 1.00789 22.1261 1.10987 22.2281C1.21184 22.3301 1.26912 22.4684 1.26912 22.6126C1.26912 23.7578 4.64648 25.3549 10.1477 25.3549C15.649 25.3549 19.0264 23.7573 19.0264 22.6126C19.0264 22.4684 19.0836 22.3301 19.1856 22.2281C19.2876 22.1261 19.4259 22.0688 19.5701 22.0688C19.7143 22.0688 19.8526 22.1261 19.9546 22.2281C20.0566 22.3301 20.1138 22.4684 20.1138 22.6126V26.5654C20.1143 29.128 14.98 30.468 10.1473 30.468ZM1.26865 24.4292V26.5672C1.26865 27.7843 4.64601 29.381 10.1473 29.381C15.6485 29.381 19.0259 27.7843 19.0259 26.6386V24.4282C17.2632 25.7474 13.6268 26.4429 10.1473 26.4429C6.66779 26.4429 3.03322 25.7483 1.2696 24.4292H1.26865Z" fill="#227648"/>
<path d="M10.1472 19.5658C4.9462 19.5658 0.724854 21.0372 0.724854 22.8514C0.724854 24.6656 4.94383 26.1375 10.1472 26.1375C15.3506 26.1375 19.5696 24.6661 19.5696 22.8514C19.5696 21.0367 15.3525 19.5658 10.1472 19.5658Z" fill="transparent"/>
<path d="M10.1473 26.6723C5.31599 26.6723 0.181641 25.3299 0.181641 22.8424C0.181641 20.3549 5.31599 19.0126 10.1473 19.0126C14.9786 19.0126 20.1129 20.3549 20.1129 22.8424C20.1129 25.3299 14.98 26.6723 10.1473 26.6723ZM10.1473 20.1001C4.64601 20.1001 1.26865 21.6968 1.26865 22.8424C1.26865 23.9881 4.64601 25.5848 10.1473 25.5848C15.6485 25.5848 19.0259 23.9871 19.0259 22.8424C19.0259 21.6977 15.6495 20.1005 10.1473 20.1005V20.1001Z" fill="transparent"/>
<path d="M10.1473 26.6723C5.31599 26.6723 0.181641 25.3299 0.181641 22.8424C0.181641 20.3549 5.31599 19.0126 10.1473 19.0126C14.9786 19.0126 20.1129 20.3549 20.1129 22.8424C20.1129 25.3299 14.98 26.6723 10.1473 26.6723ZM10.1473 20.1001C4.64601 20.1001 1.26865 21.6968 1.26865 22.8424C1.26865 23.9881 4.64601 25.5848 10.1473 25.5848C15.6485 25.5848 19.0259 23.9871 19.0259 22.8424C19.0259 21.6977 15.6495 20.1005 10.1473 20.1005V20.1001Z" fill="#227648"/>
<path d="M37.1902 30.6212C31.9863 30.6212 27.7678 29.1508 27.7678 27.3365V31.2889C27.7678 33.1031 31.9859 34.575 37.1902 34.575C42.3945 34.575 46.6126 33.1031 46.6126 31.2889V27.3365C46.6121 29.1508 42.3941 30.6212 37.1902 30.6212Z" fill="transparent"/>
<path d="M37.1902 27.0085C31.9863 27.0085 27.7678 25.5371 27.7678 23.7229V27.7475C27.7678 29.5618 31.9859 31.0322 37.1902 31.0322C42.3945 31.0322 46.6126 29.5618 46.6126 27.7475V23.7229C46.6121 25.5371 42.3941 27.0085 37.1902 27.0085Z" fill="transparent"/>
<path d="M37.1902 35.1184C32.359 35.1184 27.2246 33.776 27.2246 31.2885V27.3362C27.2246 27.192 27.2819 27.0537 27.3839 26.9517C27.4858 26.8498 27.6241 26.7925 27.7683 26.7925C27.9126 26.7925 28.0509 26.8498 28.1528 26.9517C28.2548 27.0537 28.3121 27.192 28.3121 27.3362C28.3121 28.4804 31.6895 30.0786 37.1907 30.0786C42.692 30.0786 46.0693 28.4819 46.0693 27.3362C46.0693 27.192 46.1266 27.0537 46.2286 26.9517C46.3306 26.8498 46.4689 26.7925 46.6131 26.7925C46.7573 26.7925 46.8956 26.8498 46.9976 26.9517C47.0995 27.0537 47.1568 27.192 47.1568 27.3362V31.2167C47.1545 33.7775 42.022 35.1184 37.1902 35.1184ZM28.3116 29.1504V31.2167C28.3116 32.4337 31.689 34.0309 37.1902 34.0309C42.6915 34.0309 46.0689 32.4332 46.0689 31.2885V29.1504C44.3053 30.4687 40.6697 31.1647 37.1902 31.1647C33.7108 31.1647 30.0752 30.4677 28.3116 29.1509V29.1504Z" fill="transparent"/>
<path d="M37.1902 35.1184C32.359 35.1184 27.2246 33.776 27.2246 31.2885V27.3362C27.2246 27.192 27.2819 27.0537 27.3839 26.9517C27.4858 26.8498 27.6241 26.7925 27.7683 26.7925C27.9126 26.7925 28.0509 26.8498 28.1528 26.9517C28.2548 27.0537 28.3121 27.192 28.3121 27.3362C28.3121 28.4804 31.6895 30.0786 37.1907 30.0786C42.692 30.0786 46.0693 28.4819 46.0693 27.3362C46.0693 27.192 46.1266 27.0537 46.2286 26.9517C46.3306 26.8498 46.4689 26.7925 46.6131 26.7925C46.7573 26.7925 46.8956 26.8498 46.9976 26.9517C47.0995 27.0537 47.1568 27.192 47.1568 27.3362V31.2167C47.1545 33.7775 42.022 35.1184 37.1902 35.1184ZM28.3116 29.1504V31.2167C28.3116 32.4337 31.689 34.0309 37.1902 34.0309C42.6915 34.0309 46.0689 32.4332 46.0689 31.2885V29.1504C44.3053 30.4687 40.6697 31.1647 37.1902 31.1647C33.7108 31.1647 30.0752 30.4677 28.3116 29.1509V29.1504Z" fill="#227648"/>
<path d="M37.1902 31.5574C32.359 31.5574 27.2246 30.216 27.2246 27.7276V23.7029C27.2246 23.5587 27.2819 23.4204 27.3839 23.3184C27.4858 23.2165 27.6241 23.1592 27.7683 23.1592C27.9126 23.1592 28.0509 23.2165 28.1528 23.3184C28.2548 23.4204 28.3121 23.5587 28.3121 23.7029C28.3121 24.8481 31.6895 26.4453 37.1907 26.4453C42.692 26.4453 46.0693 24.8486 46.0693 23.7029C46.0693 23.5587 46.1266 23.4204 46.2286 23.3184C46.3306 23.2165 46.4689 23.1592 46.6131 23.1592C46.7573 23.1592 46.8956 23.2165 46.9976 23.3184C47.0995 23.4204 47.1568 23.5587 47.1568 23.7029V27.6557C47.1545 30.2174 42.022 31.5574 37.1902 31.5574ZM28.3116 25.5185V27.6576C28.3116 28.8737 31.689 30.4704 37.1902 30.4704C42.6915 30.4704 46.0689 28.8737 46.0689 27.728V25.5176C44.3053 26.8368 40.6697 27.5323 37.1902 27.5323C33.7108 27.5323 30.0752 26.8372 28.3116 25.5185Z" fill="transparent"/>
<path d="M37.1902 31.5574C32.359 31.5574 27.2246 30.216 27.2246 27.7276V23.7029C27.2246 23.5587 27.2819 23.4204 27.3839 23.3184C27.4858 23.2165 27.6241 23.1592 27.7683 23.1592C27.9126 23.1592 28.0509 23.2165 28.1528 23.3184C28.2548 23.4204 28.3121 23.5587 28.3121 23.7029C28.3121 24.8481 31.6895 26.4453 37.1907 26.4453C42.692 26.4453 46.0693 24.8486 46.0693 23.7029C46.0693 23.5587 46.1266 23.4204 46.2286 23.3184C46.3306 23.2165 46.4689 23.1592 46.6131 23.1592C46.7573 23.1592 46.8956 23.2165 46.9976 23.3184C47.0995 23.4204 47.1568 23.5587 47.1568 23.7029V27.6557C47.1545 30.2174 42.022 31.5574 37.1902 31.5574ZM28.3116 25.5185V27.6576C28.3116 28.8737 31.689 30.4704 37.1902 30.4704C42.6915 30.4704 46.0689 28.8737 46.0689 27.728V25.5176C44.3053 26.8368 40.6697 27.5323 37.1902 27.5323C33.7108 27.5323 30.0752 26.8372 28.3116 25.5185Z" fill="#227648"/>
<path d="M37.1902 20.6583C31.9863 20.6583 27.7678 22.1302 27.7678 23.9444C27.7678 25.7586 31.9859 27.2301 37.1902 27.2301C42.3945 27.2301 46.6126 25.7586 46.6126 23.9444C46.6126 22.1302 42.3941 20.6583 37.1902 20.6583Z" fill="transparent"/>
<path d="M37.1902 27.7632C32.359 27.7632 27.2246 26.4209 27.2246 23.9333C27.2246 21.4458 32.359 20.1035 37.1902 20.1035C42.0215 20.1035 47.1559 21.4458 47.1559 23.9333C47.1559 26.4209 42.022 27.7632 37.1902 27.7632ZM37.1902 21.191C31.689 21.191 28.3116 22.7877 28.3116 23.9333C28.3116 25.079 31.689 26.6757 37.1902 26.6757C42.6915 26.6757 46.0689 25.079 46.0689 23.9333C46.0689 22.7877 42.6915 21.1915 37.1902 21.1915V21.191Z" fill="transparent"/>
<path d="M37.1902 27.7632C32.359 27.7632 27.2246 26.4209 27.2246 23.9333C27.2246 21.4458 32.359 20.1035 37.1902 20.1035C42.0215 20.1035 47.1559 21.4458 47.1559 23.9333C47.1559 26.4209 42.022 27.7632 37.1902 27.7632ZM37.1902 21.191C31.689 21.191 28.3116 22.7877 28.3116 23.9333C28.3116 25.079 31.689 26.6757 37.1902 26.6757C42.6915 26.6757 46.0689 25.079 46.0689 23.9333C46.0689 22.7877 42.6915 21.1915 37.1902 21.1915V21.191Z" fill="#227648"/>
<path d="M24.728 33.0974C19.5242 33.0974 15.3057 31.6269 15.3057 29.8118V33.7915C15.3057 35.6062 19.5237 37.0776 24.728 37.0776C29.9324 37.0776 34.1504 35.6062 34.1504 33.7915V29.8118C34.1499 31.6265 29.9319 33.0974 24.728 33.0974Z" fill="transparent"/>
<path d="M24.728 29.1453C19.5242 29.1453 15.3057 27.6738 15.3057 25.8596V29.8124C15.3057 31.6271 19.5237 33.098 24.728 33.098C29.9324 33.098 34.1504 31.6275 34.1504 29.8124V25.8596C34.1499 27.6738 29.9319 29.1453 24.728 29.1453Z" fill="transparent"/>
<path d="M24.728 25.6888C19.5242 25.6888 15.3057 24.2184 15.3057 22.4032V26.356C15.3057 28.1702 19.5237 29.6416 24.728 29.6416C29.9324 29.6416 34.1504 28.1702 34.1504 26.356V22.4032C34.1499 24.2179 29.9319 25.6888 24.728 25.6888Z" fill="transparent"/>
<path d="M24.728 21.8972C19.5242 21.8972 15.3057 20.4267 15.3057 18.6116V22.6362C15.3057 24.4509 19.5237 25.9218 24.728 25.9218C29.9324 25.9218 34.1504 24.4514 34.1504 22.6362V18.6116C34.1499 20.4263 29.9319 21.8972 24.728 21.8972Z" fill="transparent"/>
<path d="M24.7237 37.6215C19.8924 37.6215 14.7581 36.2792 14.7581 33.7917V29.8119C14.7581 29.6677 14.8154 29.5294 14.9173 29.4274C15.0193 29.3255 15.1576 29.2682 15.3018 29.2682C15.446 29.2682 15.5843 29.3255 15.6863 29.4274C15.7883 29.5294 15.8456 29.6677 15.8456 29.8119C15.8456 30.9571 19.2229 32.5543 24.7242 32.5543C30.2254 32.5543 33.6028 30.9576 33.6028 29.8119C33.6028 29.6677 33.6601 29.5294 33.762 29.4274C33.864 29.3255 34.0023 29.2682 34.1465 29.2682C34.2907 29.2682 34.429 29.3255 34.531 29.4274C34.633 29.5294 34.6903 29.6677 34.6903 29.8119V33.7477C34.6898 36.2792 29.5555 37.6215 24.7237 37.6215ZM15.8451 31.6266V33.7472C15.8451 34.9373 19.2224 36.534 24.7237 36.534C30.225 36.534 33.6023 34.9373 33.6023 33.7917V31.6266C31.8392 32.9448 28.2037 33.6408 24.7237 33.6408C21.2437 33.6408 17.6087 32.9448 15.8451 31.6266Z" fill="transparent"/>
<path d="M24.7237 37.6215C19.8924 37.6215 14.7581 36.2792 14.7581 33.7917V29.8119C14.7581 29.6677 14.8154 29.5294 14.9173 29.4274C15.0193 29.3255 15.1576 29.2682 15.3018 29.2682C15.446 29.2682 15.5843 29.3255 15.6863 29.4274C15.7883 29.5294 15.8456 29.6677 15.8456 29.8119C15.8456 30.9571 19.2229 32.5543 24.7242 32.5543C30.2254 32.5543 33.6028 30.9576 33.6028 29.8119C33.6028 29.6677 33.6601 29.5294 33.762 29.4274C33.864 29.3255 34.0023 29.2682 34.1465 29.2682C34.2907 29.2682 34.429 29.3255 34.531 29.4274C34.633 29.5294 34.6903 29.6677 34.6903 29.8119V33.7477C34.6898 36.2792 29.5555 37.6215 24.7237 37.6215ZM15.8451 31.6266V33.7472C15.8451 34.9373 19.2224 36.534 24.7237 36.534C30.225 36.534 33.6023 34.9373 33.6023 33.7917V31.6266C31.8392 32.9448 28.2037 33.6408 24.7237 33.6408C21.2437 33.6408 17.6087 32.9448 15.8451 31.6266Z" fill="#227648"/>
<path d="M24.7237 33.642C19.8924 33.642 14.7581 32.3006 14.7581 29.8122V25.8594C14.7581 25.7152 14.8154 25.5769 14.9173 25.4749C15.0193 25.373 15.1576 25.3157 15.3018 25.3157C15.446 25.3157 15.5843 25.373 15.6863 25.4749C15.7883 25.5769 15.8456 25.7152 15.8456 25.8594C15.8456 27.0046 19.2229 28.6018 24.7242 28.6018C30.2254 28.6018 33.6028 27.0051 33.6028 25.8594C33.6028 25.7152 33.6601 25.5769 33.762 25.4749C33.864 25.373 34.0023 25.3157 34.1465 25.3157C34.2907 25.3157 34.429 25.373 34.531 25.4749C34.633 25.5769 34.6903 25.7152 34.6903 25.8594V29.7673C34.6898 32.2987 29.5555 33.642 24.7237 33.642ZM15.8451 27.6755V29.7687C15.8451 30.9578 19.2224 32.5546 24.7237 32.5546C30.225 32.5546 33.6023 30.9578 33.6023 29.8122V27.6746C31.8392 28.9928 28.2037 29.6888 24.7237 29.6888C21.2437 29.6888 17.6087 28.9923 15.8451 27.6741V27.6755Z" fill="transparent"/>
<path d="M24.7237 33.642C19.8924 33.642 14.7581 32.3006 14.7581 29.8122V25.8594C14.7581 25.7152 14.8154 25.5769 14.9173 25.4749C15.0193 25.373 15.1576 25.3157 15.3018 25.3157C15.446 25.3157 15.5843 25.373 15.6863 25.4749C15.7883 25.5769 15.8456 25.7152 15.8456 25.8594C15.8456 27.0046 19.2229 28.6018 24.7242 28.6018C30.2254 28.6018 33.6028 27.0051 33.6028 25.8594C33.6028 25.7152 33.6601 25.5769 33.762 25.4749C33.864 25.373 34.0023 25.3157 34.1465 25.3157C34.2907 25.3157 34.429 25.373 34.531 25.4749C34.633 25.5769 34.6903 25.7152 34.6903 25.8594V29.7673C34.6898 32.2987 29.5555 33.642 24.7237 33.642ZM15.8451 27.6755V29.7687C15.8451 30.9578 19.2224 32.5546 24.7237 32.5546C30.225 32.5546 33.6023 30.9578 33.6023 29.8122V27.6746C31.8392 28.9928 28.2037 29.6888 24.7237 29.6888C21.2437 29.6888 17.6087 28.9923 15.8451 27.6741V27.6755Z" fill="#227648"/>
<path d="M24.7237 30.1693C19.8924 30.1693 14.7581 28.8279 14.7581 26.3394V22.3866C14.7581 22.2424 14.8154 22.1041 14.9173 22.0022C15.0193 21.9002 15.1576 21.8429 15.3018 21.8429C15.446 21.8429 15.5843 21.9002 15.6863 22.0022C15.7883 22.1041 15.8456 22.2424 15.8456 22.3866C15.8456 23.5318 19.2229 25.129 24.7242 25.129C30.2254 25.129 33.6028 23.5323 33.6028 22.3866C33.6028 22.2424 33.6601 22.1041 33.762 22.0022C33.864 21.9002 34.0023 21.8429 34.1465 21.8429C34.2907 21.8429 34.429 21.9002 34.531 22.0022C34.633 22.1041 34.6903 22.2424 34.6903 22.3866V26.268C34.6898 28.8279 29.5555 30.1693 24.7237 30.1693ZM15.8451 24.2023V26.2685C15.8451 27.4855 19.2224 29.0822 24.7237 29.0822C30.225 29.0822 33.6023 27.4855 33.6023 26.3399V24.2018C31.8392 25.52 28.2037 26.216 24.7237 26.216C21.2437 26.216 17.6087 25.5205 15.8451 24.2023Z" fill="transparent"/>
<path d="M24.7237 30.1693C19.8924 30.1693 14.7581 28.8279 14.7581 26.3394V22.3866C14.7581 22.2424 14.8154 22.1041 14.9173 22.0022C15.0193 21.9002 15.1576 21.8429 15.3018 21.8429C15.446 21.8429 15.5843 21.9002 15.6863 22.0022C15.7883 22.1041 15.8456 22.2424 15.8456 22.3866C15.8456 23.5318 19.2229 25.129 24.7242 25.129C30.2254 25.129 33.6028 23.5323 33.6028 22.3866C33.6028 22.2424 33.6601 22.1041 33.762 22.0022C33.864 21.9002 34.0023 21.8429 34.1465 21.8429C34.2907 21.8429 34.429 21.9002 34.531 22.0022C34.633 22.1041 34.6903 22.2424 34.6903 22.3866V26.268C34.6898 28.8279 29.5555 30.1693 24.7237 30.1693ZM15.8451 24.2023V26.2685C15.8451 27.4855 19.2224 29.0822 24.7237 29.0822C30.225 29.0822 33.6023 27.4855 33.6023 26.3399V24.2018C31.8392 25.52 28.2037 26.216 24.7237 26.216C21.2437 26.216 17.6087 25.5205 15.8451 24.2023Z" fill="#227648"/>
<path d="M24.7237 26.458C19.8924 26.458 14.7581 25.1167 14.7581 22.6282V18.6036C14.7581 18.4593 14.8154 18.321 14.9173 18.2191C15.0193 18.1171 15.1576 18.0598 15.3018 18.0598C15.446 18.0598 15.5843 18.1171 15.6863 18.2191C15.7883 18.321 15.8456 18.4593 15.8456 18.6036C15.8456 19.7487 19.2229 21.3459 24.7242 21.3459C30.2254 21.3459 33.6028 19.7492 33.6028 18.6036C33.6028 18.4593 33.6601 18.321 33.762 18.2191C33.864 18.1171 34.0023 18.0598 34.1465 18.0598C34.2907 18.0598 34.429 18.1171 34.531 18.2191C34.633 18.321 34.6903 18.4593 34.6903 18.6036V22.5559C34.6898 25.1167 29.5555 26.458 24.7237 26.458ZM15.8451 20.4192V22.5568C15.8451 23.7743 19.2224 25.371 24.7237 25.371C30.225 25.371 33.6023 23.7743 33.6023 22.6287V20.4187C31.8392 21.7379 28.2037 22.4329 24.7237 22.4329C21.2437 22.4329 17.6087 21.7384 15.8451 20.4192Z" fill="transparent"/>
<path d="M24.7237 26.458C19.8924 26.458 14.7581 25.1167 14.7581 22.6282V18.6036C14.7581 18.4593 14.8154 18.321 14.9173 18.2191C15.0193 18.1171 15.1576 18.0598 15.3018 18.0598C15.446 18.0598 15.5843 18.1171 15.6863 18.2191C15.7883 18.321 15.8456 18.4593 15.8456 18.6036C15.8456 19.7487 19.2229 21.3459 24.7242 21.3459C30.2254 21.3459 33.6028 19.7492 33.6028 18.6036C33.6028 18.4593 33.6601 18.321 33.762 18.2191C33.864 18.1171 34.0023 18.0598 34.1465 18.0598C34.2907 18.0598 34.429 18.1171 34.531 18.2191C34.633 18.321 34.6903 18.4593 34.6903 18.6036V22.5559C34.6898 25.1167 29.5555 26.458 24.7237 26.458ZM15.8451 20.4192V22.5568C15.8451 23.7743 19.2224 25.371 24.7237 25.371C30.225 25.371 33.6023 23.7743 33.6023 22.6287V20.4187C31.8392 21.7379 28.2037 22.4329 24.7237 22.4329C21.2437 22.4329 17.6087 21.7384 15.8451 20.4192Z" fill="#227648"/>
<path d="M24.728 22.1124C29.9319 22.1124 34.1504 20.6414 34.1504 18.8268C34.1504 17.0122 29.9319 15.5411 24.728 15.5411C19.5242 15.5411 15.3057 17.0122 15.3057 18.8268C15.3057 20.6414 19.5242 22.1124 24.728 22.1124Z" fill="transparent"/>
<path d="M24.7237 22.6557C19.8924 22.6557 14.7581 21.3143 14.7581 18.8258C14.7581 16.3374 19.8924 14.996 24.7237 14.996C29.555 14.996 34.6893 16.3383 34.6893 18.8258C34.6893 21.3133 29.5555 22.6557 24.7237 22.6557ZM24.7237 16.0835C19.2224 16.0835 15.8451 17.6802 15.8451 18.8258C15.8451 19.9714 19.2224 21.5682 24.7237 21.5682C30.225 21.5682 33.6023 19.9714 33.6023 18.8258C33.6023 17.6802 30.225 16.0844 24.7237 16.0844V16.0835Z" fill="transparent"/>
<path d="M24.7237 22.6557C19.8924 22.6557 14.7581 21.3143 14.7581 18.8258C14.7581 16.3374 19.8924 14.996 24.7237 14.996C29.555 14.996 34.6893 16.3383 34.6893 18.8258C34.6893 21.3133 29.5555 22.6557 24.7237 22.6557ZM24.7237 16.0835C19.2224 16.0835 15.8451 17.6802 15.8451 18.8258C15.8451 19.9714 19.2224 21.5682 24.7237 21.5682C30.225 21.5682 33.6023 19.9714 33.6023 18.8258C33.6023 17.6802 30.225 16.0844 24.7237 16.0844V16.0835Z" fill="#227648"/>
<path d="M24.7229 19.3879C29.9267 19.3879 34.1453 15.1694 34.1453 9.96558C34.1453 4.76175 29.9267 0.543213 24.7229 0.543213C19.5191 0.543213 15.3005 4.76175 15.3005 9.96558C15.3005 15.1694 19.5191 19.3879 24.7229 19.3879Z" fill="transparent"/>
<path d="M24.7185 19.9313C22.7475 19.9316 20.8206 19.3473 19.1816 18.2525C17.5426 17.1576 16.265 15.6013 15.5105 13.7804C14.756 11.9595 14.5584 9.95572 14.9427 8.0225C15.3271 6.08927 16.2761 4.31343 17.6697 2.91955C19.0633 1.52567 20.8389 0.576348 22.7721 0.191653C24.7052 -0.193042 26.7091 0.00416055 28.5301 0.758322C30.3512 1.51248 31.9077 2.78973 33.0029 4.42854C34.0981 6.06735 34.6826 7.99412 34.6827 9.96517C34.68 12.6072 33.6294 15.1402 31.7614 17.0086C29.8934 18.8769 27.3605 19.928 24.7185 19.9313ZM24.7185 1.08702C22.9624 1.08665 21.2456 1.60706 19.7853 2.58245C18.3249 3.55784 17.1866 4.9444 16.5144 6.56675C15.8421 8.1891 15.666 9.97437 16.0084 11.6968C16.3508 13.4192 17.1963 15.0014 18.438 16.2433C19.6797 17.4851 21.2617 18.3309 22.9841 18.6736C24.7065 19.0163 26.4918 18.8405 28.1142 18.1685C29.7367 17.4964 31.1234 16.3584 32.099 14.8982C33.0747 13.438 33.5953 11.7213 33.5953 9.96517C33.5925 7.61159 32.6565 5.35517 30.9924 3.69075C29.3283 2.02634 27.0721 1.0898 24.7185 1.08655V1.08702Z" fill="transparent"/>
<path d="M24.7185 19.9313C22.7475 19.9316 20.8206 19.3473 19.1816 18.2525C17.5426 17.1576 16.265 15.6013 15.5105 13.7804C14.756 11.9595 14.5584 9.95572 14.9427 8.0225C15.3271 6.08927 16.2761 4.31343 17.6697 2.91955C19.0633 1.52567 20.8389 0.576348 22.7721 0.191653C24.7052 -0.193042 26.7091 0.00416055 28.5301 0.758322C30.3512 1.51248 31.9077 2.78973 33.0029 4.42854C34.0981 6.06735 34.6826 7.99412 34.6827 9.96517C34.68 12.6072 33.6294 15.1402 31.7614 17.0086C29.8934 18.8769 27.3605 19.928 24.7185 19.9313ZM24.7185 1.08702C22.9624 1.08665 21.2456 1.60706 19.7853 2.58245C18.3249 3.55784 17.1866 4.9444 16.5144 6.56675C15.8421 8.1891 15.666 9.97437 16.0084 11.6968C16.3508 13.4192 17.1963 15.0014 18.438 16.2433C19.6797 17.4851 21.2617 18.3309 22.9841 18.6736C24.7065 19.0163 26.4918 18.8405 28.1142 18.1685C29.7367 17.4964 31.1234 16.3584 32.099 14.8982C33.0747 13.438 33.5953 11.7213 33.5953 9.96517C33.5925 7.61159 32.6565 5.35517 30.9924 3.69075C29.3283 2.02634 27.0721 1.0898 24.7185 1.08655V1.08702Z" fill="#227648"/>
<g opacity="0.9">
<g opacity="0.9">
<path d="M25.8917 4.64229C25.8917 4.64229 25.9135 4.57326 25.9679 4.57326C26.0222 4.57326 26.1731 4.543 26.2166 4.57326C26.2601 4.60352 26.2412 4.69571 26.1891 4.69571C26.1371 4.69571 25.869 4.68154 25.8917 4.64229Z" fill="transparent"/>
<path d="M25.8917 4.64229C25.8917 4.64229 25.9135 4.57326 25.9679 4.57326C26.0222 4.57326 26.1731 4.543 26.2166 4.57326C26.2601 4.60352 26.2412 4.69571 26.1891 4.69571C26.1371 4.69571 25.869 4.68154 25.8917 4.64229Z" fill="#227648"/>
</g>
<g opacity="0.9">
<g opacity="0.9">
<path d="M27.4303 4.44748C27.592 4.529 27.7617 4.59379 27.9366 4.64086C27.954 4.64416 27.9719 4.64275 27.9886 4.63676C28.0052 4.63077 28.0199 4.62043 28.0312 4.60682C28.0813 4.54819 28.1499 4.44748 28.0785 4.41107C28.0037 4.35876 27.9185 4.32339 27.8286 4.30747C27.7388 4.29154 27.6466 4.29544 27.5584 4.31887C27.305 4.38979 27.3905 4.43329 27.4303 4.44748Z" fill="transparent"/>
<path d="M27.4303 4.44748C27.592 4.529 27.7617 4.59379 27.9366 4.64086C27.954 4.64416 27.9719 4.64275 27.9886 4.63676C28.0052 4.63077 28.0199 4.62043 28.0312 4.60682C28.0813 4.54819 28.1499 4.44748 28.0785 4.41107C28.0037 4.35876 27.9185 4.32339 27.8286 4.30747C27.7388 4.29154 27.6466 4.29544 27.5584 4.31887C27.305 4.38979 27.3905 4.43329 27.4303 4.44748Z" fill="#227648"/>
</g>
<g opacity="0.9">
<g opacity="0.9">
<path d="M19.3989 8.39405C19.3989 8.39405 19.2461 8.4035 19.2726 8.22382C19.3301 8.03363 19.4505 7.8686 19.614 7.75574C19.7312 7.67536 19.7946 7.61389 19.7946 7.48623C19.7946 7.35856 19.9743 7.26165 20.0192 7.19829C20.0641 7.13493 20.2258 7.05644 20.1989 7.16282C20.1719 7.26921 20.109 7.31555 20.109 7.45077C20.109 7.586 20.1331 7.68435 20.2036 7.54061C20.4461 7.1061 20.758 6.71415 21.127 6.3803C21.4624 6.09779 21.8238 5.8478 22.2065 5.63372C22.2783 5.62521 22.3233 5.67013 22.3233 5.75098C22.3233 5.83184 22.1166 5.91268 22.0173 6.00252C21.918 6.09235 20.6934 7.05502 20.3445 7.79924C20.2719 7.89804 20.1905 7.99014 20.1015 8.07442C19.9856 8.17513 19.9667 8.32076 19.8026 8.48104C19.6386 8.64133 19.6461 8.81201 19.5662 8.83896C19.4863 8.86591 19.3771 8.76426 19.4395 8.55196C19.5019 8.33967 19.6925 8.20917 19.831 8.05173C19.9696 7.89428 20.0173 7.75763 19.9837 7.75763C19.9217 7.7625 19.8621 7.7837 19.811 7.81908C19.7598 7.85446 19.7189 7.90275 19.6925 7.95905C19.6405 8.11933 19.6367 8.18316 19.5662 8.24605C19.4958 8.30893 19.4438 8.40019 19.3989 8.39405Z" fill="transparent"/>
<path d="M19.3989 8.39405C19.3989 8.39405 19.2461 8.4035 19.2726 8.22382C19.3301 8.03363 19.4505 7.8686 19.614 7.75574C19.7312 7.67536 19.7946 7.61389 19.7946 7.48623C19.7946 7.35856 19.9743 7.26165 20.0192 7.19829C20.0641 7.13493 20.2258 7.05644 20.1989 7.16282C20.1719 7.26921 20.109 7.31555 20.109 7.45077C20.109 7.586 20.1331 7.68435 20.2036 7.54061C20.4461 7.1061 20.758 6.71415 21.127 6.3803C21.4624 6.09779 21.8238 5.8478 22.2065 5.63372C22.2783 5.62521 22.3233 5.67013 22.3233 5.75098C22.3233 5.83184 22.1166 5.91268 22.0173 6.00252C21.918 6.09235 20.6934 7.05502 20.3445 7.79924C20.2719 7.89804 20.1905 7.99014 20.1015 8.07442C19.9856 8.17513 19.9667 8.32076 19.8026 8.48104C19.6386 8.64133 19.6461 8.81201 19.5662 8.83896C19.4863 8.86591 19.3771 8.76426 19.4395 8.55196C19.5019 8.33967 19.6925 8.20917 19.831 8.05173C19.9696 7.89428 20.0173 7.75763 19.9837 7.75763C19.9217 7.7625 19.8621 7.7837 19.811 7.81908C19.7598 7.85446 19.7189 7.90275 19.6925 7.95905C19.6405 8.11933 19.6367 8.18316 19.5662 8.24605C19.4958 8.30893 19.4438 8.40019 19.3989 8.39405Z" fill="#227648"/>
</g>
<g opacity="0.9">
<path d="M22.4207 5.53247C22.4065 5.53943 22.3941 5.54958 22.3845 5.56214C22.3749 5.57469 22.3684 5.5893 22.3654 5.60482C22.3635 5.61443 22.3636 5.62433 22.3656 5.63392C22.3676 5.64351 22.3716 5.6526 22.3772 5.66062C22.4117 5.7079 22.5035 5.67148 22.5621 5.61805C22.6207 5.56462 22.9876 5.34241 22.9876 5.34241C22.7943 5.39183 22.6048 5.45535 22.4207 5.53247Z" fill="transparent"/>
<path d="M22.4207 5.53247C22.4065 5.53943 22.3941 5.54958 22.3845 5.56214C22.3749 5.57469 22.3684 5.5893 22.3654 5.60482C22.3635 5.61443 22.3636 5.62433 22.3656 5.63392C22.3676 5.64351 22.3716 5.6526 22.3772 5.66062C22.4117 5.7079 22.5035 5.67148 22.5621 5.61805C22.6207 5.56462 22.9876 5.34241 22.9876 5.34241C22.7943 5.39183 22.6048 5.45535 22.4207 5.53247Z" fill="#227648"/>
</g>
<g opacity="0.9">
<path d="M19.7852 9.10903C19.7852 9.10903 19.7303 9.1965 19.6466 9.10903C19.563 9.02156 19.6741 8.84095 19.8083 8.71612C20.0418 8.42348 20.2546 8.11492 20.4452 7.7927C20.7162 7.40399 21.0377 7.05307 21.4013 6.74919C21.8877 6.3426 22.3966 5.96375 22.9257 5.61442C23.3678 5.33966 23.8509 5.13711 24.3569 5.01441C24.902 4.90802 26.0179 4.99407 27.3829 5.84562C27.3918 5.86509 27.3966 5.88615 27.3972 5.90754C27.3977 5.92893 27.394 5.9502 27.3861 5.9701C27.3783 5.99 27.3665 6.00813 27.3515 6.02338C27.3365 6.03863 27.3185 6.0507 27.2988 6.05887C27.2988 6.05887 25.9002 5.18462 24.6864 5.22623C23.4727 5.26784 22.4859 6.07495 21.607 6.85132C20.728 7.62769 20.8249 7.70948 20.7119 7.84848C20.5989 7.98749 20.2443 8.48112 20.1828 8.56812C20.0737 8.76454 19.9401 8.94631 19.7852 9.10903Z" fill="transparent"/>
<path d="M19.7852 9.10903C19.7852 9.10903 19.7303 9.1965 19.6466 9.10903C19.563 9.02156 19.6741 8.84095 19.8083 8.71612C20.0418 8.42348 20.2546 8.11492 20.4452 7.7927C20.7162 7.40399 21.0377 7.05307 21.4013 6.74919C21.8877 6.3426 22.3966 5.96375 22.9257 5.61442C23.3678 5.33966 23.8509 5.13711 24.3569 5.01441C24.902 4.90802 26.0179 4.99407 27.3829 5.84562C27.3918 5.86509 27.3966 5.88615 27.3972 5.90754C27.3977 5.92893 27.394 5.9502 27.3861 5.9701C27.3783 5.99 27.3665 6.00813 27.3515 6.02338C27.3365 6.03863 27.3185 6.0507 27.2988 6.05887C27.2988 6.05887 25.9002 5.18462 24.6864 5.22623C23.4727 5.26784 22.4859 6.07495 21.607 6.85132C20.728 7.62769 20.8249 7.70948 20.7119 7.84848C20.5989 7.98749 20.2443 8.48112 20.1828 8.56812C20.0737 8.76454 19.9401 8.94631 19.7852 9.10903Z" fill="#227648"/>
</g>
<g opacity="0.9">
<path d="M27.7334 5.13356C26.876 4.74596 25.9248 4.61459 24.9944 4.75529C24.9856 4.75699 24.9776 4.76157 24.9716 4.76831C24.9657 4.77504 24.9621 4.78357 24.9615 4.79253C24.9609 4.8015 24.9633 4.81041 24.9683 4.81787C24.9733 4.82533 24.9807 4.83094 24.9892 4.83379C25.0684 4.85822 25.1501 4.87408 25.2327 4.88107C25.5552 4.9137 25.8474 4.98035 26.0649 4.97563C26.4326 4.98292 26.7974 5.04378 27.1476 5.15625C27.4729 5.27824 27.6114 5.33072 27.6114 5.33072C27.6363 5.33043 27.6607 5.32359 27.6821 5.31089C27.7035 5.29819 27.7212 5.28009 27.7334 5.25838C27.7486 5.24113 27.757 5.21893 27.757 5.19596C27.757 5.17299 27.7486 5.15081 27.7334 5.13356Z" fill="transparent"/>
<path d="M27.7334 5.13356C26.876 4.74596 25.9248 4.61459 24.9944 4.75529C24.9856 4.75699 24.9776 4.76157 24.9716 4.76831C24.9657 4.77504 24.9621 4.78357 24.9615 4.79253C24.9609 4.8015 24.9633 4.81041 24.9683 4.81787C24.9733 4.82533 24.9807 4.83094 24.9892 4.83379C25.0684 4.85822 25.1501 4.87408 25.2327 4.88107C25.5552 4.9137 25.8474 4.98035 26.0649 4.97563C26.4326 4.98292 26.7974 5.04378 27.1476 5.15625C27.4729 5.27824 27.6114 5.33072 27.6114 5.33072C27.6363 5.33043 27.6607 5.32359 27.6821 5.31089C27.7035 5.29819 27.7212 5.28009 27.7334 5.25838C27.7486 5.24113 27.757 5.21893 27.757 5.19596C27.757 5.17299 27.7486 5.15081 27.7334 5.13356Z" fill="#227648"/>
</g>
<g opacity="0.9">
<path d="M27.5781 5.46682C27.5781 5.46682 27.6339 5.66777 27.4472 5.68053C27.2604 5.6933 26.4968 5.23324 26.2037 5.19731C25.9105 5.16138 26.1115 4.97982 26.4897 5.08195C26.868 5.18408 27.5781 5.46682 27.5781 5.46682Z" fill="transparent"/>
<path d="M27.5781 5.46682C27.5781 5.46682 27.6339 5.66777 27.4472 5.68053C27.2604 5.6933 26.4968 5.23324 26.2037 5.19731C25.9105 5.16138 26.1115 4.97982 26.4897 5.08195C26.868 5.18408 27.5781 5.46682 27.5781 5.46682Z" fill="#227648"/>
</g>
<g opacity="0.9">
<path d="M26.5527 4.51777C26.5448 4.52106 26.538 4.52664 26.5332 4.5338C26.5284 4.54095 26.5259 4.54936 26.5259 4.55797C26.5259 4.56657 26.5284 4.57498 26.5332 4.58214C26.538 4.58929 26.5448 4.59486 26.5527 4.59815C26.6586 4.6463 26.7709 4.67894 26.8861 4.69507C27.1883 4.74901 27.4818 4.84332 27.7589 4.97546C27.9031 5.04922 27.9769 4.78633 27.8837 4.75418C27.7149 4.6946 27.2918 4.52722 27.157 4.49744C26.9564 4.46106 26.7504 4.46799 26.5527 4.51777Z" fill="transparent"/>
<path d="M26.5527 4.51777C26.5448 4.52106 26.538 4.52664 26.5332 4.5338C26.5284 4.54095 26.5259 4.54936 26.5259 4.55797C26.5259 4.56657 26.5284 4.57498 26.5332 4.58214C26.538 4.58929 26.5448 4.59486 26.5527 4.59815C26.6586 4.6463 26.7709 4.67894 26.8861 4.69507C27.1883 4.74901 27.4818 4.84332 27.7589 4.97546C27.9031 5.04922 27.9769 4.78633 27.8837 4.75418C27.7149 4.6946 27.2918 4.52722 27.157 4.49744C26.9564 4.46106 26.7504 4.46799 26.5527 4.51777Z" fill="#227648"/>
</g>
<g opacity="0.9">
<path d="M23.9615 5.68045C25.0739 5.52547 26.2052 5.76937 27.1549 6.36888C27.2817 6.34335 27.2462 6.20055 27.2462 6.20055C26.4076 5.59948 25.3803 5.32143 24.353 5.41756C23.6005 5.55433 22.9071 5.91603 22.3643 6.45492C22.144 6.63618 21.9431 6.83979 21.7648 7.0625C21.6041 7.18102 21.4294 7.27933 21.2447 7.35519C21.1686 7.41618 20.1161 8.97743 19.9794 9.14812C19.8428 9.3188 19.8064 9.4701 19.9227 9.53677C20.039 9.60344 20.1161 9.39919 20.1161 9.39919C20.1161 9.39919 20.6693 8.4909 20.7946 8.34527C20.9199 8.19964 21.3251 7.56984 21.4092 7.47102C21.4934 7.3722 21.5851 7.39348 21.5544 7.47102C21.5237 7.54857 20.8811 8.48286 20.7586 8.62849C20.4808 8.96176 20.2564 9.33611 20.0934 9.73819C20.0622 9.99115 20.2461 10.037 20.3913 9.69989C20.5134 9.38551 20.6646 9.08318 20.8428 8.79681C21.025 8.60875 21.189 8.4039 21.3326 8.18497C21.5341 7.78751 21.7752 7.41144 22.0523 7.0625C22.3352 6.76105 22.6474 6.48848 22.9842 6.24879C23.1512 6.13448 23.3261 6.03225 23.5076 5.94287C23.5993 5.89606 23.7573 5.70834 23.9615 5.68045Z" fill="transparent"/>
<path d="M23.9615 5.68045C25.0739 5.52547 26.2052 5.76937 27.1549 6.36888C27.2817 6.34335 27.2462 6.20055 27.2462 6.20055C26.4076 5.59948 25.3803 5.32143 24.353 5.41756C23.6005 5.55433 22.9071 5.91603 22.3643 6.45492C22.144 6.63618 21.9431 6.83979 21.7648 7.0625C21.6041 7.18102 21.4294 7.27933 21.2447 7.35519C21.1686 7.41618 20.1161 8.97743 19.9794 9.14812C19.8428 9.3188 19.8064 9.4701 19.9227 9.53677C20.039 9.60344 20.1161 9.39919 20.1161 9.39919C20.1161 9.39919 20.6693 8.4909 20.7946 8.34527C20.9199 8.19964 21.3251 7.56984 21.4092 7.47102C21.4934 7.3722 21.5851 7.39348 21.5544 7.47102C21.5237 7.54857 20.8811 8.48286 20.7586 8.62849C20.4808 8.96176 20.2564 9.33611 20.0934 9.73819C20.0622 9.99115 20.2461 10.037 20.3913 9.69989C20.5134 9.38551 20.6646 9.08318 20.8428 8.79681C21.025 8.60875 21.189 8.4039 21.3326 8.18497C21.5341 7.78751 21.7752 7.41144 22.0523 7.0625C22.3352 6.76105 22.6474 6.48848 22.9842 6.24879C23.1512 6.13448 23.3261 6.03225 23.5076 5.94287C23.5993 5.89606 23.7573 5.70834 23.9615 5.68045Z" fill="#227648"/>
</g>
<g opacity="0.9">
<path d="M21.7502 7.71266C22.0262 7.29804 22.3658 6.92945 22.7564 6.62044C23.07 6.37963 23.3966 6.15627 23.7347 5.9514C23.8983 5.88615 24.4529 5.6034 25.7139 5.89182C26.9749 6.18024 27.1272 6.59254 27.0676 6.67434C27.008 6.75614 26.8123 6.63084 26.5238 6.47292C26.1368 6.2484 25.7032 6.11635 25.2567 6.08709C24.7893 6.13722 24.3325 6.26007 23.903 6.45117C23.8486 6.50555 23.8429 6.3533 23.99 6.32067C24.137 6.28805 24.2349 6.16843 24.3271 6.15755C24.4193 6.14668 24.5635 6.11404 24.5635 6.03792C24.5635 5.96179 24.2534 5.97267 24.0959 6.03792C23.9385 6.10317 23.329 6.44029 23.2146 6.50033C23.1002 6.56038 22.9536 6.60909 22.9266 6.70129C22.8564 6.84467 22.7518 6.96845 22.6221 7.06158C22.4011 7.20675 22.1969 7.37595 22.0131 7.56608C21.9913 7.61584 21.9538 7.65708 21.9063 7.68354C21.8589 7.71 21.8041 7.72023 21.7502 7.71266Z" fill="transparent"/>
<path d="M21.7502 7.71266C22.0262 7.29804 22.3658 6.92945 22.7564 6.62044C23.07 6.37963 23.3966 6.15627 23.7347 5.9514C23.8983 5.88615 24.4529 5.6034 25.7139 5.89182C26.9749 6.18024 27.1272 6.59254 27.0676 6.67434C27.008 6.75614 26.8123 6.63084 26.5238 6.47292C26.1368 6.2484 25.7032 6.11635 25.2567 6.08709C24.7893 6.13722 24.3325 6.26007 23.903 6.45117C23.8486 6.50555 23.8429 6.3533 23.99 6.32067C24.137 6.28805 24.2349 6.16843 24.3271 6.15755C24.4193 6.14668 24.5635 6.11404 24.5635 6.03792C24.5635 5.96179 24.2534 5.97267 24.0959 6.03792C23.9385 6.10317 23.329 6.44029 23.2146 6.50033C23.1002 6.56038 22.9536 6.60909 22.9266 6.70129C22.8564 6.84467 22.7518 6.96845 22.6221 7.06158C22.4011 7.20675 22.1969 7.37595 22.0131 7.56608C21.9913 7.61584 21.9538 7.65708 21.9063 7.68354C21.8589 7.71 21.8041 7.72023 21.7502 7.71266Z" fill="#227648"/>
</g>
<g opacity="0.9">
<path d="M22.7129 7.12828C22.7129 7.12828 22.7744 7.21954 23.0363 7.02237C23.1362 6.93451 23.2422 6.85394 23.3536 6.78124C23.3763 6.78124 23.3115 6.68052 23.259 6.72449C23.2065 6.76846 22.7209 7.04507 22.7129 7.12828Z" fill="transparent"/>
<path d="M22.7129 7.12828C22.7129 7.12828 22.7744 7.21954 23.0363 7.02237C23.1362 6.93451 23.2422 6.85394 23.3536 6.78124C23.3763 6.78124 23.3115 6.68052 23.259 6.72449C23.2065 6.76846 22.7209 7.04507 22.7129 7.12828Z" fill="#227648"/>
</g>
<g opacity="0.9">
<path d="M23.4387 6.96661C23.4387 6.96661 23.3664 6.94486 23.5092 6.84415C24.0337 6.48513 24.6416 6.26696 25.2747 6.21057C25.8471 6.26681 26.3981 6.45801 26.8823 6.7685C27.0185 6.8867 26.9215 7.12452 26.8823 7.10986C26.843 7.09521 25.9967 6.45548 25.4104 6.43704C24.9121 6.431 24.4208 6.55485 23.9848 6.79639C23.7342 6.95195 23.651 7.01295 23.4387 6.96661Z" fill="transparent"/>
<path d="M23.4387 6.96661C23.4387 6.96661 23.3664 6.94486 23.5092 6.84415C24.0337 6.48513 24.6416 6.26696 25.2747 6.21057C25.8471 6.26681 26.3981 6.45801 26.8823 6.7685C27.0185 6.8867 26.9215 7.12452 26.8823 7.10986C26.843 7.09521 25.9967 6.45548 25.4104 6.43704C24.9121 6.431 24.4208 6.55485 23.9848 6.79639C23.7342 6.95195 23.651 7.01295 23.4387 6.96661Z" fill="#227648"/>
</g>
<g opacity="0.9">
<path d="M24.2017 6.92965C24.1945 6.92817 24.1879 6.92458 24.1827 6.91935C24.1775 6.91412 24.174 6.90749 24.1726 6.90026C24.1712 6.89304 24.1719 6.88555 24.1747 6.87875C24.1776 6.87195 24.1823 6.86615 24.1884 6.86205C24.389 6.72752 24.6143 6.6343 24.8513 6.58787C25.0883 6.54143 25.3321 6.5427 25.5686 6.59159C26.4145 6.77221 26.7601 7.17505 26.7781 7.26867C26.796 7.36229 26.7634 7.57836 26.641 7.53486C26.5185 7.49136 26.1128 6.87291 25.4537 6.81523C24.8272 6.76086 24.6797 7.04408 24.2017 6.92965Z" fill="transparent"/>
<path d="M24.2017 6.92965C24.1945 6.92817 24.1879 6.92458 24.1827 6.91935C24.1775 6.91412 24.174 6.90749 24.1726 6.90026C24.1712 6.89304 24.1719 6.88555 24.1747 6.87875C24.1776 6.87195 24.1823 6.86615 24.1884 6.86205C24.389 6.72752 24.6143 6.6343 24.8513 6.58787C25.0883 6.54143 25.3321 6.5427 25.5686 6.59159C26.4145 6.77221 26.7601 7.17505 26.7781 7.26867C26.796 7.36229 26.7634 7.57836 26.641 7.53486C26.5185 7.49136 26.1128 6.87291 25.4537 6.81523C24.8272 6.76086 24.6797 7.04408 24.2017 6.92965Z" fill="#227648"/>
</g>
<g opacity="0.9">
<path d="M25.067 7.08187L24.9932 7.05728C24.9912 7.05652 24.9896 7.05519 24.9884 7.05346C24.9872 7.05173 24.9866 7.04968 24.9866 7.04759C24.9866 7.04549 24.9872 7.04344 24.9884 7.04171C24.9896 7.03998 24.9912 7.03865 24.9932 7.03789C25.2524 6.97264 25.5249 6.98199 25.779 7.06484C26.01 7.16108 26.2191 7.3031 26.3937 7.48234C26.397 7.48548 26.3991 7.48965 26.3997 7.49416C26.4003 7.49867 26.3993 7.50324 26.3969 7.50712C26.3945 7.51099 26.3909 7.51394 26.3866 7.51546C26.3823 7.51697 26.3776 7.51696 26.3734 7.51544L25.067 7.08187Z" fill="transparent"/>
<path d="M25.067 7.08187L24.9932 7.05728C24.9912 7.05652 24.9896 7.05519 24.9884 7.05346C24.9872 7.05173 24.9866 7.04968 24.9866 7.04759C24.9866 7.04549 24.9872 7.04344 24.9884 7.04171C24.9896 7.03998 24.9912 7.03865 24.9932 7.03789C25.2524 6.97264 25.5249 6.98199 25.779 7.06484C26.01 7.16108 26.2191 7.3031 26.3937 7.48234C26.397 7.48548 26.3991 7.48965 26.3997 7.49416C26.4003 7.49867 26.3993 7.50324 26.3969 7.50712C26.3945 7.51099 26.3909 7.51394 26.3866 7.51546C26.3823 7.51697 26.3776 7.51696 26.3734 7.51544L25.067 7.08187Z" fill="#227648"/>
</g>
<g opacity="0.9">
<path d="M20.527 10.2635C20.527 10.2635 20.4878 10.3803 20.3852 10.2919C20.2826 10.2035 20.3469 10.0649 20.3852 9.96988C20.4988 9.70904 20.63 9.45628 20.7781 9.21336C20.9075 9.08241 21.0174 8.93352 21.1043 8.77128C21.1081 8.70366 21.171 8.9604 20.9152 9.36561C20.6594 9.77081 20.7568 9.87059 20.527 10.2635Z" fill="transparent"/>
<path d="M20.527 10.2635C20.527 10.2635 20.4878 10.3803 20.3852 10.2919C20.2826 10.2035 20.3469 10.0649 20.3852 9.96988C20.4988 9.70904 20.63 9.45628 20.7781 9.21336C20.9075 9.08241 21.0174 8.93352 21.1043 8.77128C21.1081 8.70366 21.171 8.9604 20.9152 9.36561C20.6594 9.77081 20.7568 9.87059 20.527 10.2635Z" fill="#227648"/>
</g>
<g opacity="0.9">
<path d="M20.7498 10.6565C20.7498 10.6565 20.7115 10.7378 20.6439 10.6565C20.5763 10.5752 20.6401 10.3842 20.7215 10.1889C20.8028 9.99364 20.9163 9.55911 20.9692 9.47447C21.0222 9.38984 21.0293 9.58039 21.0293 9.63666C21.0415 9.84775 21.0134 10.0592 20.9465 10.2598C20.8935 10.3979 20.8277 10.5307 20.7498 10.6565Z" fill="transparent"/>
<path d="M20.7498 10.6565C20.7498 10.6565 20.7115 10.7378 20.6439 10.6565C20.5763 10.5752 20.6401 10.3842 20.7215 10.1889C20.8028 9.99364 20.9163 9.55911 20.9692 9.47447C21.0222 9.38984 21.0293 9.58039 21.0293 9.63666C21.0415 9.84775 21.0134 10.0592 20.9465 10.2598C20.8935 10.3979 20.8277 10.5307 20.7498 10.6565Z" fill="#227648"/>
</g>
<g opacity="0.9">
<path d="M21.0774 11.0386C21.0774 11.0386 20.9989 11.1663 20.9071 11.014C20.8762 10.9634 20.8599 10.9053 20.8599 10.846C20.8599 10.7866 20.8762 10.7285 20.9071 10.6779C20.9355 10.6249 20.9856 10.4415 21.0064 10.4126C21.0272 10.3838 21.0594 10.4552 21.0774 10.5469C21.0953 10.6386 21.1478 10.7493 21.1478 10.7913C21.1466 10.8785 21.1223 10.9639 21.0774 11.0386Z" fill="transparent"/>
<path d="M21.0774 11.0386C21.0774 11.0386 20.9989 11.1663 20.9071 11.014C20.8762 10.9634 20.8599 10.9053 20.8599 10.846C20.8599 10.7866 20.8762 10.7285 20.9071 10.6779C20.9355 10.6249 20.9856 10.4415 21.0064 10.4126C21.0272 10.3838 21.0594 10.4552 21.0774 10.5469C21.0953 10.6386 21.1478 10.7493 21.1478 10.7913C21.1466 10.8785 21.1223 10.9639 21.0774 11.0386Z" fill="#227648"/>
</g>
<g opacity="0.9">
<path d="M21.2524 11.1901C21.2524 11.1901 21.2241 11.1026 21.2023 11.088C21.1806 11.0733 21.1191 11.1584 21.113 11.2222C21.1068 11.2861 21.173 11.3069 21.1825 11.3641C21.1919 11.4213 21.2373 11.3494 21.252 11.2894C21.2608 11.2569 21.2609 11.2227 21.2524 11.1901Z" fill="transparent"/>
<path d="M21.2524 11.1901C21.2524 11.1901 21.2241 11.1026 21.2023 11.088C21.1806 11.0733 21.1191 11.1584 21.113 11.2222C21.1068 11.2861 21.173 11.3069 21.1825 11.3641C21.1919 11.4213 21.2373 11.3494 21.252 11.2894C21.2608 11.2569 21.2609 11.2227 21.2524 11.1901Z" fill="#227648"/>
</g>
<g opacity="0.9">
<path d="M21.4509 9.31409C21.513 8.96336 21.6644 8.63458 21.8906 8.35947C22.0345 8.16237 22.2149 7.99478 22.4221 7.86585C22.4221 7.86585 22.4694 7.85497 22.449 7.95143C22.3765 8.0901 22.296 8.22444 22.2079 8.35379C22.1809 8.42329 21.9497 8.64883 21.9526 8.68477C21.9554 8.7207 22.0519 8.69045 22.0679 8.71172C22.084 8.733 22.1214 8.75427 22.0679 8.88855C21.9601 9.11302 21.8669 9.34424 21.789 9.58076C21.6978 9.87561 21.5756 10.1599 21.4244 10.429C21.3918 10.429 21.3223 10.4233 21.3332 10.1926C21.4294 9.76096 21.5789 9.34294 21.7781 8.94813C21.875 8.80298 21.8802 8.80297 21.8424 8.80628C21.7021 8.91678 21.5976 9.06633 21.5422 9.23608C21.5095 9.41056 21.4509 9.31409 21.4509 9.31409Z" fill="transparent"/>
<path d="M21.4509 9.31409C21.513 8.96336 21.6644 8.63458 21.8906 8.35947C22.0345 8.16237 22.2149 7.99478 22.4221 7.86585C22.4221 7.86585 22.4694 7.85497 22.449 7.95143C22.3765 8.0901 22.296 8.22444 22.2079 8.35379C22.1809 8.42329 21.9497 8.64883 21.9526 8.68477C21.9554 8.7207 22.0519 8.69045 22.0679 8.71172C22.084 8.733 22.1214 8.75427 22.0679 8.88855C21.9601 9.11302 21.8669 9.34424 21.789 9.58076C21.6978 9.87561 21.5756 10.1599 21.4244 10.429C21.3918 10.429 21.3223 10.4233 21.3332 10.1926C21.4294 9.76096 21.5789 9.34294 21.7781 8.94813C21.875 8.80298 21.8802 8.80297 21.8424 8.80628C21.7021 8.91678 21.5976 9.06633 21.5422 9.23608C21.5095 9.41056 21.4509 9.31409 21.4509 9.31409Z" fill="#227648"/>
</g>
<g opacity="0.9">
<path d="M22.3223 9.26025C22.3223 9.26025 22.2353 9.46735 22.0528 9.45222C21.8703 9.43709 22.1474 8.98697 22.1876 8.79027C22.3004 8.44199 22.4513 8.10723 22.6377 7.79214C22.7072 7.72784 22.8949 7.65598 22.9214 7.71603C22.9479 7.77607 22.8193 7.86733 22.7554 7.99972C22.6377 8.21076 22.538 8.4314 22.4576 8.6593C22.4382 8.79358 22.3223 9.26025 22.3223 9.26025Z" fill="transparent"/>
<path d="M22.3223 9.26025C22.3223 9.26025 22.2353 9.46735 22.0528 9.45222C21.8703 9.43709 22.1474 8.98697 22.1876 8.79027C22.3004 8.44199 22.4513 8.10723 22.6377 7.79214C22.7072 7.72784 22.8949 7.65598 22.9214 7.71603C22.9479 7.77607 22.8193 7.86733 22.7554 7.99972C22.6377 8.21076 22.538 8.4314 22.4576 8.6593C22.4382 8.79358 22.3223 9.26025 22.3223 9.26025Z" fill="#227648"/>
</g>
<g opacity="0.9">
<path d="M22.1462 9.69939C22.1525 9.68425 22.1556 9.66795 22.1553 9.65154C22.1549 9.63513 22.1512 9.61897 22.1442 9.6041C22.1373 9.58923 22.1273 9.57599 22.1149 9.5652C22.1026 9.55441 22.0881 9.54632 22.0724 9.54146C21.9523 9.49418 21.949 9.5306 21.8932 9.62043C21.7223 9.97412 21.5809 10.3413 21.4705 10.7183C21.4693 10.8598 21.4966 11 21.5509 11.1306C21.5906 11.1703 21.6364 11.1018 21.6364 11.0044C21.6507 10.889 21.6985 10.7803 21.774 10.6918C21.8107 10.6401 21.8362 10.5813 21.8491 10.5193C21.8619 10.4572 21.8618 10.3931 21.8487 10.3311C21.8256 10.1798 22.0606 9.93958 22.0606 9.93958C22.0606 9.93958 22.0606 10.3112 22.0374 10.4658C22.0142 10.6204 21.8521 10.7462 21.8128 10.8152C21.7736 10.8843 21.757 11.1514 21.7287 11.2356C21.6999 11.3351 21.6939 11.4398 21.7112 11.542C21.7287 11.6224 21.783 11.8223 21.8128 11.6796C21.8494 11.4862 21.9091 11.2979 21.9906 11.1188C22.0178 11.3046 22.0201 11.4931 21.9977 11.6796C21.9802 11.7708 21.9504 12.229 21.9504 12.2862C21.9504 12.3434 21.7844 12.5959 21.7495 12.6928C21.7145 12.7897 21.532 13.1278 21.532 13.151C21.532 13.1741 21.7211 13.151 21.8355 13.0588C21.8807 13.0205 21.9175 12.9733 21.9438 12.9202C21.9701 12.8671 21.9852 12.8092 21.9882 12.75C21.98 12.6289 21.9902 12.5073 22.0185 12.3893C22.0851 12.2396 22.1441 12.0867 22.1953 11.9311C22.2127 11.6758 22.2127 11.4195 22.1953 11.1642C22.189 10.8707 22.2108 10.5773 22.2606 10.2881C22.305 10.1628 22.3079 10.0989 22.3447 10.0989C22.3683 10.2641 22.3683 10.4317 22.3447 10.5968C22.3334 10.7112 22.2975 11.1004 22.2975 11.1576C22.2454 11.6342 22.3204 12.1161 22.515 12.5543C22.515 12.5543 22.549 12.6961 22.6984 12.5982C22.8478 12.5004 22.6294 12.0843 22.5949 11.9647C22.5203 11.6974 22.4804 11.4217 22.4762 11.1443C22.6175 11.4482 22.7181 11.7693 22.7755 12.0994C22.7826 12.194 22.8105 12.4867 22.8596 12.4942C22.9573 12.4706 23.0464 12.4202 23.1169 12.3486C23.1168 12.2818 23.0983 12.2164 23.0634 12.1595C22.8537 11.6835 22.714 11.1796 22.6488 10.6635C22.6077 10.0493 22.6394 9.43237 22.7433 8.82562C22.7968 8.7112 23.0232 8.20433 23.0805 8.1197C23.1377 8.03506 23.2994 7.70314 23.3296 7.68895C23.3599 7.67477 23.3949 7.67902 23.3949 7.71117C23.3949 7.74333 23.3003 7.98164 23.2606 8.08944C23.2209 8.19724 23.0242 8.51497 22.9882 8.62278C22.877 8.96012 22.805 9.30916 22.7736 9.66299C22.7496 10.2321 22.7883 10.8021 22.889 11.3628C22.931 11.5519 23.1613 12.1841 23.2956 12.2417C23.3201 12.2492 23.346 12.2513 23.3714 12.2477C23.3969 12.2442 23.4212 12.2351 23.4427 12.2211C23.4643 12.2072 23.4825 12.1886 23.4961 12.1669C23.5097 12.1451 23.5184 12.1206 23.5216 12.0952C23.3879 11.8577 23.2699 11.6118 23.1684 11.359C23.0866 11.0946 23.0351 10.8218 23.0147 10.5457C23.0341 10.4342 23.1797 11.4814 23.6715 12.0299C23.6715 12.0299 23.7367 12.0682 23.8441 11.9959C23.9514 11.9235 23.9514 11.8573 23.8441 11.7387C23.6353 11.4246 23.4609 11.0891 23.3239 10.7377C23.2738 10.5528 23.0559 9.95566 23.0403 9.93817C23.0153 9.72515 23.0231 9.50956 23.0634 9.29891C23.1169 9.03791 23.1977 8.67101 23.2091 8.5703C23.2557 8.43478 23.3258 8.30851 23.4161 8.19724C23.4891 8.05316 23.5457 7.90139 23.5849 7.74475C23.6322 7.57974 23.7154 7.46105 23.6384 7.45254C23.5006 7.4491 23.364 7.47843 23.2398 7.53812C23.1897 7.59108 22.9892 7.71071 22.5679 8.68046C22.5078 8.79198 22.4669 8.91281 22.4469 9.03791C22.4469 9.20743 22.394 9.37273 22.2956 9.51073C22.2502 9.57699 22.2002 9.64003 22.1462 9.69939Z" fill="transparent"/>
<path d="M22.1462 9.69939C22.1525 9.68425 22.1556 9.66795 22.1553 9.65154C22.1549 9.63513 22.1512 9.61897 22.1442 9.6041C22.1373 9.58923 22.1273 9.57599 22.1149 9.5652C22.1026 9.55441 22.0881 9.54632 22.0724 9.54146C21.9523 9.49418 21.949 9.5306 21.8932 9.62043C21.7223 9.97412 21.5809 10.3413 21.4705 10.7183C21.4693 10.8598 21.4966 11 21.5509 11.1306C21.5906 11.1703 21.6364 11.1018 21.6364 11.0044C21.6507 10.889 21.6985 10.7803 21.774 10.6918C21.8107 10.6401 21.8362 10.5813 21.8491 10.5193C21.8619 10.4572 21.8618 10.3931 21.8487 10.3311C21.8256 10.1798 22.0606 9.93958 22.0606 9.93958C22.0606 9.93958 22.0606 10.3112 22.0374 10.4658C22.0142 10.6204 21.8521 10.7462 21.8128 10.8152C21.7736 10.8843 21.757 11.1514 21.7287 11.2356C21.6999 11.3351 21.6939 11.4398 21.7112 11.542C21.7287 11.6224 21.783 11.8223 21.8128 11.6796C21.8494 11.4862 21.9091 11.2979 21.9906 11.1188C22.0178 11.3046 22.0201 11.4931 21.9977 11.6796C21.9802 11.7708 21.9504 12.229 21.9504 12.2862C21.9504 12.3434 21.7844 12.5959 21.7495 12.6928C21.7145 12.7897 21.532 13.1278 21.532 13.151C21.532 13.1741 21.7211 13.151 21.8355 13.0588C21.8807 13.0205 21.9175 12.9733 21.9438 12.9202C21.9701 12.8671 21.9852 12.8092 21.9882 12.75C21.98 12.6289 21.9902 12.5073 22.0185 12.3893C22.0851 12.2396 22.1441 12.0867 22.1953 11.9311C22.2127 11.6758 22.2127 11.4195 22.1953 11.1642C22.189 10.8707 22.2108 10.5773 22.2606 10.2881C22.305 10.1628 22.3079 10.0989 22.3447 10.0989C22.3683 10.2641 22.3683 10.4317 22.3447 10.5968C22.3334 10.7112 22.2975 11.1004 22.2975 11.1576C22.2454 11.6342 22.3204 12.1161 22.515 12.5543C22.515 12.5543 22.549 12.6961 22.6984 12.5982C22.8478 12.5004 22.6294 12.0843 22.5949 11.9647C22.5203 11.6974 22.4804 11.4217 22.4762 11.1443C22.6175 11.4482 22.7181 11.7693 22.7755 12.0994C22.7826 12.194 22.8105 12.4867 22.8596 12.4942C22.9573 12.4706 23.0464 12.4202 23.1169 12.3486C23.1168 12.2818 23.0983 12.2164 23.0634 12.1595C22.8537 11.6835 22.714 11.1796 22.6488 10.6635C22.6077 10.0493 22.6394 9.43237 22.7433 8.82562C22.7968 8.7112 23.0232 8.20433 23.0805 8.1197C23.1377 8.03506 23.2994 7.70314 23.3296 7.68895C23.3599 7.67477 23.3949 7.67902 23.3949 7.71117C23.3949 7.74333 23.3003 7.98164 23.2606 8.08944C23.2209 8.19724 23.0242 8.51497 22.9882 8.62278C22.877 8.96012 22.805 9.30916 22.7736 9.66299C22.7496 10.2321 22.7883 10.8021 22.889 11.3628C22.931 11.5519 23.1613 12.1841 23.2956 12.2417C23.3201 12.2492 23.346 12.2513 23.3714 12.2477C23.3969 12.2442 23.4212 12.2351 23.4427 12.2211C23.4643 12.2072 23.4825 12.1886 23.4961 12.1669C23.5097 12.1451 23.5184 12.1206 23.5216 12.0952C23.3879 11.8577 23.2699 11.6118 23.1684 11.359C23.0866 11.0946 23.0351 10.8218 23.0147 10.5457C23.0341 10.4342 23.1797 11.4814 23.6715 12.0299C23.6715 12.0299 23.7367 12.0682 23.8441 11.9959C23.9514 11.9235 23.9514 11.8573 23.8441 11.7387C23.6353 11.4246 23.4609 11.0891 23.3239 10.7377C23.2738 10.5528 23.0559 9.95566 23.0403 9.93817C23.0153 9.72515 23.0231 9.50956 23.0634 9.29891C23.1169 9.03791 23.1977 8.67101 23.2091 8.5703C23.2557 8.43478 23.3258 8.30851 23.4161 8.19724C23.4891 8.05316 23.5457 7.90139 23.5849 7.74475C23.6322 7.57974 23.7154 7.46105 23.6384 7.45254C23.5006 7.4491 23.364 7.47843 23.2398 7.53812C23.1897 7.59108 22.9892 7.71071 22.5679 8.68046C22.5078 8.79198 22.4669 8.91281 22.4469 9.03791C22.4469 9.20743 22.394 9.37273 22.2956 9.51073C22.2502 9.57699 22.2002 9.64003 22.1462 9.69939Z" fill="#227648"/>
</g>
<g opacity="0.9">
<path d="M22.2447 12.2664C22.2303 12.264 22.2154 12.2645 22.2011 12.2678C22.1868 12.2711 22.1734 12.2772 22.1614 12.2858C22.1495 12.2944 22.1394 12.3052 22.1317 12.3177C22.124 12.3302 22.1189 12.3441 22.1166 12.3586C22.1043 12.4753 22.0994 12.5926 22.1019 12.7099C22.0967 12.7709 22.0192 12.9312 22.0409 12.9402C22.085 12.9387 22.1282 12.9285 22.1683 12.9102C22.2084 12.892 22.2445 12.866 22.2745 12.8338C22.3514 12.7509 22.3967 12.6436 22.4026 12.5307C22.4012 12.4196 22.3653 12.2664 22.2447 12.2664Z" fill="transparent"/>
<path d="M22.2447 12.2664C22.2303 12.264 22.2154 12.2645 22.2011 12.2678C22.1868 12.2711 22.1734 12.2772 22.1614 12.2858C22.1495 12.2944 22.1394 12.3052 22.1317 12.3177C22.124 12.3302 22.1189 12.3441 22.1166 12.3586C22.1043 12.4753 22.0994 12.5926 22.1019 12.7099C22.0967 12.7709 22.0192 12.9312 22.0409 12.9402C22.085 12.9387 22.1282 12.9285 22.1683 12.9102C22.2084 12.892 22.2445 12.866 22.2745 12.8338C22.3514 12.7509 22.3967 12.6436 22.4026 12.5307C22.4012 12.4196 22.3653 12.2664 22.2447 12.2664Z" fill="#227648"/>
</g>
<g opacity="0.9">
<path d="M24.0477 7.60866C24.0477 7.60866 24.1423 7.49424 24.1139 7.46965C24.0855 7.44507 23.9545 7.36469 23.9002 7.42758C23.7728 7.60741 23.6722 7.80474 23.6014 8.01341C23.5541 8.20254 23.2779 8.73162 23.2543 8.84604C23.1913 9.18648 23.1861 9.53512 23.2392 9.87726C23.3776 10.5368 23.6308 11.1668 23.9872 11.7388C24.0114 11.7696 24.0424 11.7946 24.0777 11.8118C24.113 11.8289 24.1517 11.8378 24.191 11.8378C24.2302 11.8378 24.269 11.8289 24.3043 11.8118C24.3396 11.7946 24.3705 11.7696 24.3947 11.7388L24.2382 11.5581C24.2382 11.5581 23.8505 10.8607 23.7999 10.7761C23.6531 10.4976 23.5525 10.197 23.5021 9.88625C23.5429 9.64181 23.54 9.39208 23.4935 9.14865C23.5099 8.79778 23.6103 8.45597 23.7862 8.15194C23.8363 8.06022 24.0477 7.60866 24.0477 7.60866Z" fill="transparent"/>
<path d="M24.0477 7.60866C24.0477 7.60866 24.1423 7.49424 24.1139 7.46965C24.0855 7.44507 23.9545 7.36469 23.9002 7.42758C23.7728 7.60741 23.6722 7.80474 23.6014 8.01341C23.5541 8.20254 23.2779 8.73162 23.2543 8.84604C23.1913 9.18648 23.1861 9.53512 23.2392 9.87726C23.3776 10.5368 23.6308 11.1668 23.9872 11.7388C24.0114 11.7696 24.0424 11.7946 24.0777 11.8118C24.113 11.8289 24.1517 11.8378 24.191 11.8378C24.2302 11.8378 24.269 11.8289 24.3043 11.8118C24.3396 11.7946 24.3705 11.7696 24.3947 11.7388L24.2382 11.5581C24.2382 11.5581 23.8505 10.8607 23.7999 10.7761C23.6531 10.4976 23.5525 10.197 23.5021 9.88625C23.5429 9.64181 23.54 9.39208 23.4935 9.14865C23.5099 8.79778 23.6103 8.45597 23.7862 8.15194C23.8363 8.06022 24.0477 7.60866 24.0477 7.60866Z" fill="#227648"/>
</g>
<g opacity="0.9">
<path d="M23.876 8.9822C23.8808 8.88195 23.8988 8.78276 23.9294 8.68717C23.9767 8.56234 24.024 8.35618 23.9294 8.3089C23.8348 8.26162 23.6722 8.29661 23.6722 8.64603C23.6304 9.06849 23.6304 9.49404 23.6722 9.9165C23.8174 10.6389 24.1628 11.3059 24.6689 11.8413C24.8877 12.0366 25.1178 12.2186 25.3582 12.3865C25.9574 12.6724 26.6131 12.82 27.277 12.8187C27.6377 12.7714 27.7337 12.6026 27.7498 12.5402C27.7659 12.4778 27.7162 12.3742 27.6666 12.4201C27.6169 12.4659 27.3469 12.7151 26.4713 12.5203C26.0508 12.4701 25.6504 12.3129 25.3081 12.0636C25.2608 12.0163 24.7644 11.5151 24.7067 11.4612C24.4656 11.1725 24.2555 10.8594 24.0797 10.5269C24.0797 10.4191 24.8159 11.8172 25.798 12.196C26.78 12.5747 27.1394 12.5076 27.3304 12.4451C27.5214 12.3827 27.7124 12.3241 27.7124 12.256C27.7124 12.1879 27.7086 12.0565 27.642 12.0565C27.5753 12.0565 27.2164 12.2726 27.0363 12.256C26.8157 12.2001 26.5924 12.1555 26.3672 12.1227C26.052 12.0562 25.7573 11.9154 25.5077 11.7118C24.8702 11.251 24.3764 10.619 24.0835 9.88907C23.9787 9.59606 23.909 9.29164 23.876 8.9822Z" fill="transparent"/>
<path d="M23.876 8.9822C23.8808 8.88195 23.8988 8.78276 23.9294 8.68717C23.9767 8.56234 24.024 8.35618 23.9294 8.3089C23.8348 8.26162 23.6722 8.29661 23.6722 8.64603C23.6304 9.06849 23.6304 9.49404 23.6722 9.9165C23.8174 10.6389 24.1628 11.3059 24.6689 11.8413C24.8877 12.0366 25.1178 12.2186 25.3582 12.3865C25.9574 12.6724 26.6131 12.82 27.277 12.8187C27.6377 12.7714 27.7337 12.6026 27.7498 12.5402C27.7659 12.4778 27.7162 12.3742 27.6666 12.4201C27.6169 12.4659 27.3469 12.7151 26.4713 12.5203C26.0508 12.4701 25.6504 12.3129 25.3081 12.0636C25.2608 12.0163 24.7644 11.5151 24.7067 11.4612C24.4656 11.1725 24.2555 10.8594 24.0797 10.5269C24.0797 10.4191 24.8159 11.8172 25.798 12.196C26.78 12.5747 27.1394 12.5076 27.3304 12.4451C27.5214 12.3827 27.7124 12.3241 27.7124 12.256C27.7124 12.1879 27.7086 12.0565 27.642 12.0565C27.5753 12.0565 27.2164 12.2726 27.0363 12.256C26.8157 12.2001 26.5924 12.1555 26.3672 12.1227C26.052 12.0562 25.7573 11.9154 25.5077 11.7118C24.8702 11.251 24.3764 10.619 24.0835 9.88907C23.9787 9.59606 23.909 9.29164 23.876 8.9822Z" fill="#227648"/>
</g>
<g opacity="0.9">
<path d="M25.599 12.63C25.599 12.63 25.338 12.4532 25.2865 12.4626C25.2349 12.4721 25.2444 12.5572 25.2496 12.6489C25.2548 12.7407 25.2917 12.8381 25.356 12.8541C25.4203 12.8702 25.5844 12.831 25.6264 12.8541C25.928 13.0055 26.2578 13.0926 26.5948 13.1099C26.8443 13.1304 27.0948 13.1381 27.3451 13.1331C27.4893 13.1194 27.7291 13.0352 27.7541 12.9752C27.7792 12.9151 27.7598 12.7425 27.713 12.7425C27.6662 12.7425 27.6066 12.9889 26.652 12.8773C25.6974 12.7657 25.599 12.63 25.599 12.63Z" fill="transparent"/>
<path d="M25.599 12.63C25.599 12.63 25.338 12.4532 25.2865 12.4626C25.2349 12.4721 25.2444 12.5572 25.2496 12.6489C25.2548 12.7407 25.2917 12.8381 25.356 12.8541C25.4203 12.8702 25.5844 12.831 25.6264 12.8541C25.928 13.0055 26.2578 13.0926 26.5948 13.1099C26.8443 13.1304 27.0948 13.1381 27.3451 13.1331C27.4893 13.1194 27.7291 13.0352 27.7541 12.9752C27.7792 12.9151 27.7598 12.7425 27.713 12.7425C27.6662 12.7425 27.6066 12.9889 26.652 12.8773C25.6974 12.7657 25.599 12.63 25.599 12.63Z" fill="#227648"/>
</g>
<g opacity="0.9">
<path d="M25.7242 13.0168C25.7242 13.0168 25.5351 12.8749 25.4727 12.9326C25.4103 12.9903 25.4032 13.1558 25.5989 13.2031C25.7947 13.2504 26.2316 13.3705 26.3294 13.3894C26.5246 13.4267 26.7224 13.4485 26.9209 13.4546C27.0939 13.434 27.2651 13.4013 27.4335 13.3567C27.5219 13.3567 27.7829 13.3567 27.7966 13.3009C27.7975 13.2343 27.7864 13.168 27.764 13.1052C27.7597 13.0768 27.685 13.0863 27.6335 13.1147C27.4735 13.1792 27.3063 13.2244 27.1356 13.2494C26.8485 13.2683 26.5602 13.2473 26.2789 13.187C26.0905 13.1424 25.9052 13.0856 25.7242 13.0168Z" fill="transparent"/>
<path d="M25.7242 13.0168C25.7242 13.0168 25.5351 12.8749 25.4727 12.9326C25.4103 12.9903 25.4032 13.1558 25.5989 13.2031C25.7947 13.2504 26.2316 13.3705 26.3294 13.3894C26.5246 13.4267 26.7224 13.4485 26.9209 13.4546C27.0939 13.434 27.2651 13.4013 27.4335 13.3567C27.5219 13.3567 27.7829 13.3567 27.7966 13.3009C27.7975 13.2343 27.7864 13.168 27.764 13.1052C27.7597 13.0768 27.685 13.0863 27.6335 13.1147C27.4735 13.1792 27.3063 13.2244 27.1356 13.2494C26.8485 13.2683 26.5602 13.2473 26.2789 13.187C26.0905 13.1424 25.9052 13.0856 25.7242 13.0168Z" fill="#227648"/>
</g>
<g opacity="0.9">
<path d="M27.6063 13.5609C27.6063 13.5609 27.2053 13.8356 26.097 13.664C24.9887 13.4924 25.2729 13.0493 25.3003 13.0673C25.3277 13.0853 25.4213 13.2167 25.4866 13.2399C25.8555 13.3697 26.2333 13.4724 26.6171 13.5472C26.8391 13.5623 27.0621 13.545 27.2791 13.4957C27.4096 13.4484 27.5864 13.342 27.6516 13.4304C27.7169 13.5188 27.6063 13.5609 27.6063 13.5609Z" fill="transparent"/>
<path d="M27.6063 13.5609C27.6063 13.5609 27.2053 13.8356 26.097 13.664C24.9887 13.4924 25.2729 13.0493 25.3003 13.0673C25.3277 13.0853 25.4213 13.2167 25.4866 13.2399C25.8555 13.3697 26.2333 13.4724 26.6171 13.5472C26.8391 13.5623 27.0621 13.545 27.2791 13.4957C27.4096 13.4484 27.5864 13.342 27.6516 13.4304C27.7169 13.5188 27.6063 13.5609 27.6063 13.5609Z" fill="#227648"/>
</g>
<g opacity="0.9">
<path d="M25.4344 13.576C25.4344 13.576 25.3328 13.5056 25.3328 13.576C25.3376 13.6256 25.3552 13.673 25.3837 13.7138C25.4123 13.7545 25.4509 13.7872 25.4959 13.8086C25.5822 13.8542 25.6782 13.878 25.7758 13.8781C25.8943 13.889 26.0096 13.9222 26.1157 13.976C26.4335 14.1049 26.784 14.1296 27.1167 14.0465C27.6945 13.9391 27.8335 13.8034 27.8619 13.7628C27.8827 13.7054 27.8827 13.6424 27.8619 13.585C27.8482 13.5249 27.8084 13.4952 27.7541 13.5453C27.583 13.674 27.3877 13.7667 27.1798 13.8176C26.9719 13.8686 26.7558 13.8768 26.5446 13.8417C26.1579 13.8496 25.7756 13.7581 25.4344 13.576Z" fill="transparent"/>
<path d="M25.4344 13.576C25.4344 13.576 25.3328 13.5056 25.3328 13.576C25.3376 13.6256 25.3552 13.673 25.3837 13.7138C25.4123 13.7545 25.4509 13.7872 25.4959 13.8086C25.5822 13.8542 25.6782 13.878 25.7758 13.8781C25.8943 13.889 26.0096 13.9222 26.1157 13.976C26.4335 14.1049 26.784 14.1296 27.1167 14.0465C27.6945 13.9391 27.8335 13.8034 27.8619 13.7628C27.8827 13.7054 27.8827 13.6424 27.8619 13.585C27.8482 13.5249 27.8084 13.4952 27.7541 13.5453C27.583 13.674 27.3877 13.7667 27.1798 13.8176C26.9719 13.8686 26.7558 13.8768 26.5446 13.8417C26.1579 13.8496 25.7756 13.7581 25.4344 13.576Z" fill="#227648"/>
</g>
<g opacity="0.9">
<path d="M25.9991 14.0226C25.9991 14.0226 25.9296 13.9247 25.7433 13.972C25.557 14.0192 26.2223 14.3772 26.2601 14.4098C26.2979 14.4424 26.3405 14.4604 26.505 14.4424C26.6695 14.4244 27.1305 14.4003 27.2894 14.3625C27.5032 14.3254 27.705 14.2377 27.8781 14.1067C27.983 13.9814 27.941 13.9015 27.8483 13.9176C27.4637 14.1159 27.0388 14.224 26.6062 14.2334C26.0317 14.1809 25.9991 14.0226 25.9991 14.0226Z" fill="transparent"/>
<path d="M25.9991 14.0226C25.9991 14.0226 25.9296 13.9247 25.7433 13.972C25.557 14.0192 26.2223 14.3772 26.2601 14.4098C26.2979 14.4424 26.3405 14.4604 26.505 14.4424C26.6695 14.4244 27.1305 14.4003 27.2894 14.3625C27.5032 14.3254 27.705 14.2377 27.8781 14.1067C27.983 13.9814 27.941 13.9015 27.8483 13.9176C27.4637 14.1159 27.0388 14.224 26.6062 14.2334C26.0317 14.1809 25.9991 14.0226 25.9991 14.0226Z" fill="#227648"/>
</g>
<g opacity="0.9">
<path d="M26.7952 14.5307C26.7952 14.5307 26.5167 14.5345 26.5271 14.5931C26.5506 14.643 26.5891 14.6842 26.6371 14.7111C26.6852 14.738 26.7405 14.7491 26.7952 14.743C27.1224 14.6938 27.4458 14.6228 27.7636 14.5307C27.9054 14.4574 28.025 14.4362 28.025 14.3496C28.025 14.2631 27.9995 14.1605 27.939 14.1813C27.5938 14.3934 27.2 14.5137 26.7952 14.5307Z" fill="transparent"/>
<path d="M26.7952 14.5307C26.7952 14.5307 26.5167 14.5345 26.5271 14.5931C26.5506 14.643 26.5891 14.6842 26.6371 14.7111C26.6852 14.738 26.7405 14.7491 26.7952 14.743C27.1224 14.6938 27.4458 14.6228 27.7636 14.5307C27.9054 14.4574 28.025 14.4362 28.025 14.3496C28.025 14.2631 27.9995 14.1605 27.939 14.1813C27.5938 14.3934 27.2 14.5137 26.7952 14.5307Z" fill="#227648"/>
</g>
<g opacity="0.9">
<path d="M27.3564 14.7818C27.3564 14.7818 27.05 14.8787 27.05 14.9137C27.05 14.9487 27.1753 15.092 27.2761 15.0811C27.4234 15.0276 27.5677 14.9659 27.7082 14.8962C27.8236 14.8612 28.0917 14.8196 28.1016 14.7468C28.1092 14.6681 28.0927 14.589 28.0543 14.5199C28.0334 14.5104 28.0108 14.5055 27.9879 14.5055C27.965 14.5055 27.9423 14.5104 27.9215 14.5199C27.7403 14.622 27.5514 14.7096 27.3564 14.7818Z" fill="transparent"/>
<path d="M27.3564 14.7818C27.3564 14.7818 27.05 14.8787 27.05 14.9137C27.05 14.9487 27.1753 15.092 27.2761 15.0811C27.4234 15.0276 27.5677 14.9659 27.7082 14.8962C27.8236 14.8612 28.0917 14.8196 28.1016 14.7468C28.1092 14.6681 28.0927 14.589 28.0543 14.5199C28.0334 14.5104 28.0108 14.5055 27.9879 14.5055C27.965 14.5055 27.9423 14.5104 27.9215 14.5199C27.7403 14.622 27.5514 14.7096 27.3564 14.7818Z" fill="#227648"/>
</g>
<g opacity="0.9">
<path d="M27.6497 15.2576C27.6163 15.275 27.5793 15.2841 27.5416 15.2841C27.504 15.2841 27.467 15.275 27.4336 15.2576C27.3149 15.1989 27.357 15.1337 27.461 15.0845C27.565 15.0353 27.7447 14.9658 27.8199 14.9337C27.8951 14.9015 28.0785 14.833 28.1036 14.8613C28.1287 14.8897 28.1717 14.9621 28.1646 14.9866C28.1575 15.0112 27.6497 15.2576 27.6497 15.2576Z" fill="transparent"/>
<path d="M27.6497 15.2576C27.6163 15.275 27.5793 15.2841 27.5416 15.2841C27.504 15.2841 27.467 15.275 27.4336 15.2576C27.3149 15.1989 27.357 15.1337 27.461 15.0845C27.565 15.0353 27.7447 14.9658 27.8199 14.9337C27.8951 14.9015 28.0785 14.833 28.1036 14.8613C28.1287 14.8897 28.1717 14.9621 28.1646 14.9866C28.1575 15.0112 27.6497 15.2576 27.6497 15.2576Z" fill="#227648"/>
</g>
<g opacity="0.9">
<path d="M27.816 15.5341C27.816 15.5341 27.6321 15.4362 27.6321 15.4088C27.6321 15.3814 27.7072 15.3142 27.763 15.3142C27.9115 15.2723 28.0572 15.2213 28.1995 15.1615C28.2527 15.2104 28.2873 15.2762 28.2973 15.3478C28.2973 15.4433 27.8893 15.5478 27.816 15.5341Z" fill="transparent"/>
<path d="M27.816 15.5341C27.816 15.5341 27.6321 15.4362 27.6321 15.4088C27.6321 15.3814 27.7072 15.3142 27.763 15.3142C27.9115 15.2723 28.0572 15.2213 28.1995 15.1615C28.2527 15.2104 28.2873 15.2762 28.2973 15.3478C28.2973 15.4433 27.8893 15.5478 27.816 15.5341Z" fill="#227648"/>
</g>
<g opacity="0.9">
<path d="M28.2975 15.743C28.2445 15.7544 28.1897 15.7544 28.1367 15.743C28.0781 15.7222 28.0086 15.6423 27.984 15.6423C27.9594 15.6423 28.0407 15.5903 28.1046 15.5865C28.1747 15.5748 28.244 15.5579 28.3116 15.5359C28.3499 15.5274 28.3987 15.5794 28.3987 15.6438C28.3987 15.7081 28.2975 15.743 28.2975 15.743Z" fill="transparent"/>
<path d="M28.2975 15.743C28.2445 15.7544 28.1897 15.7544 28.1367 15.743C28.0781 15.7222 28.0086 15.6423 27.984 15.6423C27.9594 15.6423 28.0407 15.5903 28.1046 15.5865C28.1747 15.5748 28.244 15.5579 28.3116 15.5359C28.3499 15.5274 28.3987 15.5794 28.3987 15.6438C28.3987 15.7081 28.2975 15.743 28.2975 15.743Z" fill="#227648"/>
</g>
<g opacity="0.9">
<path d="M24.5275 7.66675C24.5275 7.66675 24.6348 7.56178 24.6348 7.54051C24.5577 7.46772 24.457 7.42509 24.3511 7.42041C24.2004 7.63791 24.0953 7.88367 24.042 8.14289C23.9888 8.4021 23.9886 8.66941 24.0414 8.92871C24.0786 9.46961 24.237 9.99523 24.5047 10.4667C24.7724 10.9382 25.1426 11.3435 25.588 11.6526C25.8237 11.8416 26.098 11.9764 26.3916 12.0474C26.6852 12.1184 26.9909 12.1239 27.2869 12.0635C27.2869 12.0635 27.3743 11.9845 27.2519 11.976C26.9118 11.9348 26.5769 11.8587 26.2523 11.7491C26.0358 11.6474 25.5601 11.1954 25.4812 11.1633C25.2389 10.9608 25.0204 10.7315 24.8301 10.4796C24.8164 10.4101 24.5998 10.0181 24.5488 9.83321C24.4977 9.64834 24.3733 8.85921 24.3365 8.71122C24.2961 8.55436 24.2745 8.39325 24.2722 8.2313C24.3227 8.02933 24.4092 7.8381 24.5275 7.66675Z" fill="transparent"/>
<path d="M24.5275 7.66675C24.5275 7.66675 24.6348 7.56178 24.6348 7.54051C24.5577 7.46772 24.457 7.42509 24.3511 7.42041C24.2004 7.63791 24.0953 7.88367 24.042 8.14289C23.9888 8.4021 23.9886 8.66941 24.0414 8.92871C24.0786 9.46961 24.237 9.99523 24.5047 10.4667C24.7724 10.9382 25.1426 11.3435 25.588 11.6526C25.8237 11.8416 26.098 11.9764 26.3916 12.0474C26.6852 12.1184 26.9909 12.1239 27.2869 12.0635C27.2869 12.0635 27.3743 11.9845 27.2519 11.976C26.9118 11.9348 26.5769 11.8587 26.2523 11.7491C26.0358 11.6474 25.5601 11.1954 25.4812 11.1633C25.2389 10.9608 25.0204 10.7315 24.8301 10.4796C24.8164 10.4101 24.5998 10.0181 24.5488 9.83321C24.4977 9.64834 24.3733 8.85921 24.3365 8.71122C24.2961 8.55436 24.2745 8.39325 24.2722 8.2313C24.3227 8.02933 24.4092 7.8381 24.5275 7.66675Z" fill="#227648"/>
</g>
<g opacity="0.9">
<path d="M24.9542 7.75994C24.9542 7.75994 25.0695 7.72968 25.0743 7.69185C25.079 7.65403 25.0605 7.5656 24.9107 7.54055C24.7608 7.51549 24.617 7.62187 24.5159 7.88901C24.4272 8.28343 24.4528 8.69492 24.5896 9.07532C24.6497 9.45138 24.7503 9.81982 24.8898 10.1742C25.1348 10.6408 25.1263 10.6408 25.2208 10.7151C25.3154 10.7893 25.7608 11.2276 25.8355 11.2962C25.9999 11.4313 26.1833 11.5417 26.3797 11.6238C26.4587 11.6238 26.4908 11.499 26.4861 11.4399C26.4814 11.3808 26.4724 11.3453 26.366 11.343C26.2596 11.3406 26.1078 11.1633 26.1078 11.1633C26.1078 11.1633 25.5404 10.6276 25.4932 10.5992C25.3045 10.4145 25.1359 10.2103 24.9901 9.99023C24.9901 9.93018 24.9995 9.8375 25.0374 9.8881C25.1812 10.1008 25.3417 10.3017 25.5173 10.4891C25.7871 10.7401 26.0757 10.97 26.3807 11.177C26.5149 11.2319 26.575 11.2366 26.5844 11.1297C26.5939 11.0229 26.6582 10.9723 26.7135 11.0049C26.8988 11.1238 27.1025 11.2113 27.3164 11.2635C27.4473 11.2498 27.6412 11.0512 27.7012 11.065C27.7613 11.0787 27.5901 11.272 27.5353 11.3047C27.4804 11.3373 27.5826 11.4063 27.5996 11.4153C27.6339 11.4342 27.6734 11.4418 27.7123 11.4369C27.7512 11.4319 27.7876 11.4148 27.8161 11.3879C27.9183 11.3004 27.9268 11.1841 27.8634 11.0224C27.8001 10.8607 27.7792 10.604 27.7547 10.5571C27.7301 10.5103 27.7112 10.4333 27.6601 10.5571C27.6333 10.6647 27.5731 10.7611 27.4882 10.8323C27.4032 10.9036 27.2979 10.9461 27.1873 10.9538C26.803 10.9833 26.4202 10.8807 26.1022 10.6631C25.4883 10.2731 25.041 9.66928 24.8468 8.96847C24.469 7.89848 24.9542 7.75994 24.9542 7.75994Z" fill="transparent"/>
<path d="M24.9542 7.75994C24.9542 7.75994 25.0695 7.72968 25.0743 7.69185C25.079 7.65403 25.0605 7.5656 24.9107 7.54055C24.7608 7.51549 24.617 7.62187 24.5159 7.88901C24.4272 8.28343 24.4528 8.69492 24.5896 9.07532C24.6497 9.45138 24.7503 9.81982 24.8898 10.1742C25.1348 10.6408 25.1263 10.6408 25.2208 10.7151C25.3154 10.7893 25.7608 11.2276 25.8355 11.2962C25.9999 11.4313 26.1833 11.5417 26.3797 11.6238C26.4587 11.6238 26.4908 11.499 26.4861 11.4399C26.4814 11.3808 26.4724 11.3453 26.366 11.343C26.2596 11.3406 26.1078 11.1633 26.1078 11.1633C26.1078 11.1633 25.5404 10.6276 25.4932 10.5992C25.3045 10.4145 25.1359 10.2103 24.9901 9.99023C24.9901 9.93018 24.9995 9.8375 25.0374 9.8881C25.1812 10.1008 25.3417 10.3017 25.5173 10.4891C25.7871 10.7401 26.0757 10.97 26.3807 11.177C26.5149 11.2319 26.575 11.2366 26.5844 11.1297C26.5939 11.0229 26.6582 10.9723 26.7135 11.0049C26.8988 11.1238 27.1025 11.2113 27.3164 11.2635C27.4473 11.2498 27.6412 11.0512 27.7012 11.065C27.7613 11.0787 27.5901 11.272 27.5353 11.3047C27.4804 11.3373 27.5826 11.4063 27.5996 11.4153C27.6339 11.4342 27.6734 11.4418 27.7123 11.4369C27.7512 11.4319 27.7876 11.4148 27.8161 11.3879C27.9183 11.3004 27.9268 11.1841 27.8634 11.0224C27.8001 10.8607 27.7792 10.604 27.7547 10.5571C27.7301 10.5103 27.7112 10.4333 27.6601 10.5571C27.6333 10.6647 27.5731 10.7611 27.4882 10.8323C27.4032 10.9036 27.2979 10.9461 27.1873 10.9538C26.803 10.9833 26.4202 10.8807 26.1022 10.6631C25.4883 10.2731 25.041 9.66928 24.8468 8.96847C24.469 7.89848 24.9542 7.75994 24.9542 7.75994Z" fill="#227648"/>
</g>
<g opacity="0.9">
<path d="M27.6133 10.0318C27.5971 10.0236 27.5786 10.0213 27.5609 10.0252C27.5432 10.0292 27.5275 10.0392 27.5163 10.0535C27.4984 10.0824 27.4691 9.93957 27.5121 9.80576C27.5551 9.67195 27.5215 9.46391 27.4752 9.4781C27.4289 9.49228 27.0917 10.0275 26.7229 9.82372C26.3246 9.54904 25.992 9.18962 25.7489 8.77123C25.6032 8.55067 25.5107 8.29932 25.4785 8.03694C25.4785 8.03694 25.4993 7.90124 25.504 7.8653C25.5088 7.82937 25.4303 7.67617 25.3286 7.71447C25.227 7.75277 24.982 7.88894 24.9546 7.99154C24.8703 8.13639 24.8409 8.30675 24.8719 8.47146C24.9369 8.75101 25.0216 9.02562 25.1253 9.29323C25.2144 9.55835 25.3555 9.80301 25.5404 10.0129C25.7608 10.2275 26.0022 10.4193 26.261 10.5854C26.5372 10.7759 26.8737 10.8581 27.2066 10.8166C27.3374 10.7848 27.4533 10.7094 27.5355 10.6028C27.6177 10.4962 27.6611 10.3649 27.6587 10.2304C27.6579 10.1617 27.6424 10.094 27.6133 10.0318ZM25.6686 9.90269C25.6511 9.87953 25.4293 9.5372 25.4061 9.51924C25.5253 9.60744 25.636 9.70636 25.7371 9.81475C25.8412 9.91783 25.9219 10.0422 25.9735 10.1793C25.9735 10.1793 25.6837 9.92539 25.6686 9.90269ZM26.9759 10.4304C26.7634 10.4262 26.5596 10.3454 26.4019 10.2029C26.3073 10.1429 26.0619 9.83318 25.8591 9.6223C25.6931 9.46666 25.5473 9.29082 25.4251 9.09889C25.3607 8.96981 25.1759 8.32347 25.157 8.24782C25.1381 8.17217 25.2591 8.11164 25.2539 8.14852C25.2583 8.21529 25.2675 8.28166 25.2813 8.34711C25.3507 8.6939 25.4916 9.02241 25.695 9.31167C25.9377 9.6311 26.2279 9.91142 26.5556 10.1429C26.6499 10.2241 26.7659 10.2761 26.8894 10.2925C27.0128 10.3089 27.1383 10.2889 27.2506 10.2351C27.3182 10.2077 27.3825 10.2077 27.3986 10.2351C27.4147 10.2625 27.3272 10.4427 26.9764 10.4304H26.9759Z" fill="transparent"/>
<path d="M27.6133 10.0318C27.5971 10.0236 27.5786 10.0213 27.5609 10.0252C27.5432 10.0292 27.5275 10.0392 27.5163 10.0535C27.4984 10.0824 27.4691 9.93957 27.5121 9.80576C27.5551 9.67195 27.5215 9.46391 27.4752 9.4781C27.4289 9.49228 27.0917 10.0275 26.7229 9.82372C26.3246 9.54904 25.992 9.18962 25.7489 8.77123C25.6032 8.55067 25.5107 8.29932 25.4785 8.03694C25.4785 8.03694 25.4993 7.90124 25.504 7.8653C25.5088 7.82937 25.4303 7.67617 25.3286 7.71447C25.227 7.75277 24.982 7.88894 24.9546 7.99154C24.8703 8.13639 24.8409 8.30675 24.8719 8.47146C24.9369 8.75101 25.0216 9.02562 25.1253 9.29323C25.2144 9.55835 25.3555 9.80301 25.5404 10.0129C25.7608 10.2275 26.0022 10.4193 26.261 10.5854C26.5372 10.7759 26.8737 10.8581 27.2066 10.8166C27.3374 10.7848 27.4533 10.7094 27.5355 10.6028C27.6177 10.4962 27.6611 10.3649 27.6587 10.2304C27.6579 10.1617 27.6424 10.094 27.6133 10.0318ZM25.6686 9.90269C25.6511 9.87953 25.4293 9.5372 25.4061 9.51924C25.5253 9.60744 25.636 9.70636 25.7371 9.81475C25.8412 9.91783 25.9219 10.0422 25.9735 10.1793C25.9735 10.1793 25.6837 9.92539 25.6686 9.90269ZM26.9759 10.4304C26.7634 10.4262 26.5596 10.3454 26.4019 10.2029C26.3073 10.1429 26.0619 9.83318 25.8591 9.6223C25.6931 9.46666 25.5473 9.29082 25.4251 9.09889C25.3607 8.96981 25.1759 8.32347 25.157 8.24782C25.1381 8.17217 25.2591 8.11164 25.2539 8.14852C25.2583 8.21529 25.2675 8.28166 25.2813 8.34711C25.3507 8.6939 25.4916 9.02241 25.695 9.31167C25.9377 9.6311 26.2279 9.91142 26.5556 10.1429C26.6499 10.2241 26.7659 10.2761 26.8894 10.2925C27.0128 10.3089 27.1383 10.2889 27.2506 10.2351C27.3182 10.2077 27.3825 10.2077 27.3986 10.2351C27.4147 10.2625 27.3272 10.4427 26.9764 10.4304H26.9759Z" fill="#227648"/>
</g>
<g opacity="0.9">
<path d="M27.4282 9.17271C27.3729 9.17271 27.2486 9.32496 27.2296 9.23702C27.2107 9.14907 27.3143 8.95994 27.3157 8.78499C27.3186 8.55654 27.2785 8.3296 27.1975 8.11596C27.1143 7.94906 27.0358 7.81098 26.8925 7.89845C26.7493 7.98593 26.8235 8.05638 26.884 8.13486C27.0043 8.26566 27.0801 8.43117 27.1006 8.60768C27.1006 8.81572 27.0684 9.09706 26.9894 9.11597C26.8226 9.10839 26.6632 9.04476 26.537 8.93536C26.3503 8.79517 26.1772 8.63764 26.0202 8.46489C25.9644 8.38593 25.849 8.19681 25.8816 8.16466C25.9143 8.13251 25.9644 8.11738 26.0107 8.2058C26.1167 8.35137 26.2355 8.48713 26.3658 8.61146C26.4301 8.67151 26.6244 8.85639 26.6968 8.90698C26.7691 8.95757 26.8627 9.04552 26.9365 8.93015C26.9719 8.85567 26.9922 8.7749 26.9962 8.69251C27.0002 8.61013 26.9878 8.52779 26.9597 8.45025C26.9048 8.34812 26.8088 8.17837 26.7805 8.1344C26.7729 8.11712 26.7621 8.1015 26.7484 8.08847C26.7348 8.07545 26.7187 8.06527 26.7011 8.05853C26.6835 8.0518 26.6647 8.04863 26.6459 8.04924C26.627 8.04985 26.6085 8.0542 26.5913 8.06205C26.4854 8.10934 26.4968 8.19161 26.527 8.22376C26.5573 8.25591 26.7351 8.37175 26.7488 8.45496C26.7625 8.53818 26.7994 8.68097 26.7351 8.61146C26.6708 8.54196 26.5091 8.32021 26.467 8.29043C26.4249 8.26064 26.1214 8.07671 26.1214 8.07671C25.9873 8.02413 25.8576 7.96089 25.7337 7.88759C25.7105 7.85071 25.6353 7.84031 25.6864 8.05875C25.72 8.29474 25.8046 8.5206 25.9341 8.72069C26.0236 8.82068 26.0871 8.94118 26.119 9.07153C26.2743 9.37653 26.5399 9.611 26.8618 9.72733C27.2632 9.82189 27.4018 9.36184 27.4249 9.33016C27.4481 9.29848 27.484 9.17271 27.4282 9.17271ZM27.0457 9.4531C27.032 9.54766 26.8566 9.44506 26.7833 9.4531C26.71 9.46114 26.5701 9.33441 26.4826 9.23181C26.3951 9.12921 26.3251 9.02472 26.353 9.01054C26.3809 8.99635 26.4916 9.13536 26.6022 9.19541C26.71 9.2717 26.8355 9.31937 26.9668 9.33394C27.0689 9.32023 27.0457 9.4531 27.0457 9.4531Z" fill="transparent"/>
<path d="M27.4282 9.17271C27.3729 9.17271 27.2486 9.32496 27.2296 9.23702C27.2107 9.14907 27.3143 8.95994 27.3157 8.78499C27.3186 8.55654 27.2785 8.3296 27.1975 8.11596C27.1143 7.94906 27.0358 7.81098 26.8925 7.89845C26.7493 7.98593 26.8235 8.05638 26.884 8.13486C27.0043 8.26566 27.0801 8.43117 27.1006 8.60768C27.1006 8.81572 27.0684 9.09706 26.9894 9.11597C26.8226 9.10839 26.6632 9.04476 26.537 8.93536C26.3503 8.79517 26.1772 8.63764 26.0202 8.46489C25.9644 8.38593 25.849 8.19681 25.8816 8.16466C25.9143 8.13251 25.9644 8.11738 26.0107 8.2058C26.1167 8.35137 26.2355 8.48713 26.3658 8.61146C26.4301 8.67151 26.6244 8.85639 26.6968 8.90698C26.7691 8.95757 26.8627 9.04552 26.9365 8.93015C26.9719 8.85567 26.9922 8.7749 26.9962 8.69251C27.0002 8.61013 26.9878 8.52779 26.9597 8.45025C26.9048 8.34812 26.8088 8.17837 26.7805 8.1344C26.7729 8.11712 26.7621 8.1015 26.7484 8.08847C26.7348 8.07545 26.7187 8.06527 26.7011 8.05853C26.6835 8.0518 26.6647 8.04863 26.6459 8.04924C26.627 8.04985 26.6085 8.0542 26.5913 8.06205C26.4854 8.10934 26.4968 8.19161 26.527 8.22376C26.5573 8.25591 26.7351 8.37175 26.7488 8.45496C26.7625 8.53818 26.7994 8.68097 26.7351 8.61146C26.6708 8.54196 26.5091 8.32021 26.467 8.29043C26.4249 8.26064 26.1214 8.07671 26.1214 8.07671C25.9873 8.02413 25.8576 7.96089 25.7337 7.88759C25.7105 7.85071 25.6353 7.84031 25.6864 8.05875C25.72 8.29474 25.8046 8.5206 25.9341 8.72069C26.0236 8.82068 26.0871 8.94118 26.119 9.07153C26.2743 9.37653 26.5399 9.611 26.8618 9.72733C27.2632 9.82189 27.4018 9.36184 27.4249 9.33016C27.4481 9.29848 27.484 9.17271 27.4282 9.17271ZM27.0457 9.4531C27.032 9.54766 26.8566 9.44506 26.7833 9.4531C26.71 9.46114 26.5701 9.33441 26.4826 9.23181C26.3951 9.12921 26.3251 9.02472 26.353 9.01054C26.3809 8.99635 26.4916 9.13536 26.6022 9.19541C26.71 9.2717 26.8355 9.31937 26.9668 9.33394C27.0689 9.32023 27.0457 9.4531 27.0457 9.4531Z" fill="#227648"/>
</g>
<g opacity="0.9">
<path d="M27.904 11.4256C27.904 11.4256 27.8213 11.5178 27.8213 11.5576C27.8213 11.5973 27.8638 11.6148 27.8624 11.6521C27.861 11.6895 27.8908 11.7093 27.939 11.6791C27.9872 11.6488 27.9835 11.611 27.9787 11.5594C27.974 11.5079 27.9816 11.4086 27.904 11.4256Z" fill="transparent"/>
<path d="M27.904 11.4256C27.904 11.4256 27.8213 11.5178 27.8213 11.5576C27.8213 11.5973 27.8638 11.6148 27.8624 11.6521C27.861 11.6895 27.8908 11.7093 27.939 11.6791C27.9872 11.6488 27.9835 11.611 27.9787 11.5594C27.974 11.5079 27.9816 11.4086 27.904 11.4256Z" fill="#227648"/>
</g>
<g opacity="0.9">
<path d="M27.982 11.7601C27.982 11.7601 27.8979 11.813 27.9035 11.8745C27.9092 11.936 27.8936 11.9884 27.9035 12.0324C27.9135 12.0764 27.9834 12.0797 28.0057 12.0324C28.0279 11.9851 28.0624 11.9534 28.0359 11.8906C28.0094 11.8277 28.035 11.7123 27.982 11.7601Z" fill="transparent"/>
<path d="M27.982 11.7601C27.982 11.7601 27.8979 11.813 27.9035 11.8745C27.9092 11.936 27.8936 11.9884 27.9035 12.0324C27.9135 12.0764 27.9834 12.0797 28.0057 12.0324C28.0279 11.9851 28.0624 11.9534 28.0359 11.8906C28.0094 11.8277 28.035 11.7123 27.982 11.7601Z" fill="#227648"/>
</g>
<g opacity="0.9">
<path d="M28.0459 12.3623C28.0459 12.3623 27.9305 12.4455 27.9395 12.3977C27.9484 12.35 27.9532 12.1689 27.9924 12.1613C28.0317 12.1537 28.0321 12.0823 28.0893 12.1925C28.1466 12.3027 28.1064 12.3249 28.0459 12.3623Z" fill="transparent"/>
<path d="M28.0459 12.3623C28.0459 12.3623 27.9305 12.4455 27.9395 12.3977C27.9484 12.35 27.9532 12.1689 27.9924 12.1613C28.0317 12.1537 28.0321 12.0823 28.0893 12.1925C28.1466 12.3027 28.1064 12.3249 28.0459 12.3623Z" fill="#227648"/>
</g>
<g opacity="0.9">
<path d="M28.1371 12.5071C28.1371 12.5071 28.1683 12.3898 28.0799 12.4598C27.9914 12.5298 27.9659 12.5099 27.9721 12.5619C27.9782 12.6139 27.9976 12.6981 28.0453 12.6853C28.0931 12.6725 28.1768 12.6905 28.1371 12.5071Z" fill="transparent"/>
<path d="M28.1371 12.5071C28.1371 12.5071 28.1683 12.3898 28.0799 12.4598C27.9914 12.5298 27.9659 12.5099 27.9721 12.5619C27.9782 12.6139 27.9976 12.6981 28.0453 12.6853C28.0931 12.6725 28.1768 12.6905 28.1371 12.5071Z" fill="#227648"/>
</g>
<g opacity="0.9">
<path d="M28.1901 12.7539C28.1901 12.7539 28.0483 12.8196 28.0606 12.9038C28.0729 12.988 28.1424 13.0683 28.1731 13.0674C28.2038 13.0665 28.2521 12.979 28.2346 12.9099C28.2171 12.8409 28.2379 12.7265 28.1901 12.7539Z" fill="transparent"/>
<path d="M28.1901 12.7539C28.1901 12.7539 28.0483 12.8196 28.0606 12.9038C28.0729 12.988 28.1424 13.0683 28.1731 13.0674C28.2038 13.0665 28.2521 12.979 28.2346 12.9099C28.2171 12.8409 28.2379 12.7265 28.1901 12.7539Z" fill="#227648"/>
</g>
</g>
</g>
</g>
</svg>
