<svg width="28" height="29" viewBox="0 0 28 29" fill="none" xmlns="http://www.w3.org/2000/svg">
<path d="M12.6728 18.6864C12.5093 18.6891 12.3494 18.6374 12.2185 18.5393L7.90324 15.314C7.75237 15.1946 7.65406 15.0211 7.6292 14.8303C7.60434 14.6395 7.6549 14.4465 7.77013 14.2925C7.88536 14.1384 8.05616 14.0354 8.2462 14.0053C8.43623 13.9752 8.6305 14.0205 8.78766 14.1315L12.5586 16.95L19.8521 8.71354C19.982 8.56682 20.1648 8.4777 20.3604 8.46578C20.556 8.45385 20.7483 8.52011 20.895 8.64996C21.0417 8.77982 21.1308 8.96264 21.1427 9.15821C21.1547 9.35378 21.0884 9.54608 20.9586 9.6928L13.213 18.438C13.145 18.5146 13.062 18.5762 12.969 18.6189C12.876 18.6617 12.7752 18.6846 12.6728 18.6864Z" fill="transparent"/>
<path d="M12.6728 18.6864C12.5093 18.6891 12.3494 18.6374 12.2185 18.5393L7.90324 15.314C7.75237 15.1946 7.65406 15.0211 7.6292 14.8303C7.60434 14.6395 7.6549 14.4465 7.77013 14.2925C7.88536 14.1384 8.05616 14.0354 8.2462 14.0053C8.43623 13.9752 8.6305 14.0205 8.78766 14.1315L12.5586 16.95L19.8521 8.71354C19.982 8.56682 20.1648 8.4777 20.3604 8.46578C20.556 8.45385 20.7483 8.52011 20.895 8.64996C21.0417 8.77982 21.1308 8.96264 21.1427 9.15821C21.1547 9.35378 21.0884 9.54608 20.9586 9.6928L13.213 18.438C13.145 18.5146 13.062 18.5762 12.969 18.6189C12.876 18.6617 12.7752 18.6846 12.6728 18.6864Z" fill="#227648"/>
<path d="M14.181 28.1036C12.0125 28.14 9.86628 27.6615 7.91862 26.7074C5.97097 25.7532 4.2774 24.3507 2.97701 22.615C1.67661 20.8793 0.806476 18.8599 0.43805 16.7226C0.0696242 14.5854 0.213418 12.3912 0.857624 10.3203C0.891175 10.2127 0.945591 10.1127 1.01776 10.0261C1.08994 9.93957 1.17846 9.86806 1.27827 9.8157C1.37808 9.76334 1.48722 9.73115 1.59947 9.72097C1.71172 9.71079 1.82488 9.72282 1.93248 9.75637C2.04008 9.78992 2.14002 9.84433 2.22659 9.91651C2.31317 9.98868 2.38467 10.0772 2.43704 10.177C2.4894 10.2768 2.52159 10.386 2.53177 10.4982C2.54195 10.6105 2.52992 10.7236 2.49637 10.8312C1.64319 13.5632 1.7952 16.5102 2.92494 19.1399C4.05468 21.7696 6.08765 23.9086 8.6566 25.1704C11.2255 26.4322 14.1611 26.7337 16.9328 26.0203C19.7046 25.307 22.1299 23.6258 23.7705 21.2806C23.9012 21.0944 24.1005 20.9677 24.3246 20.9284C24.5487 20.8892 24.7792 20.9405 24.9655 21.0712C25.1517 21.2019 25.2784 21.4012 25.3177 21.6253C25.3569 21.8494 25.3056 22.08 25.1749 22.2662C23.9299 24.0345 22.2856 25.4846 20.3755 26.4988C18.4655 27.513 16.3432 28.0628 14.181 28.1036Z" fill="transparent"/>
<path d="M14.181 28.1036C12.0125 28.14 9.86628 27.6615 7.91862 26.7074C5.97097 25.7532 4.2774 24.3507 2.97701 22.615C1.67661 20.8793 0.806476 18.8599 0.43805 16.7226C0.0696242 14.5854 0.213418 12.3912 0.857624 10.3203C0.891175 10.2127 0.945591 10.1127 1.01776 10.0261C1.08994 9.93957 1.17846 9.86806 1.27827 9.8157C1.37808 9.76334 1.48722 9.73115 1.59947 9.72097C1.71172 9.71079 1.82488 9.72282 1.93248 9.75637C2.04008 9.78992 2.14002 9.84433 2.22659 9.91651C2.31317 9.98868 2.38467 10.0772 2.43704 10.177C2.4894 10.2768 2.52159 10.386 2.53177 10.4982C2.54195 10.6105 2.52992 10.7236 2.49637 10.8312C1.64319 13.5632 1.7952 16.5102 2.92494 19.1399C4.05468 21.7696 6.08765 23.9086 8.6566 25.1704C11.2255 26.4322 14.1611 26.7337 16.9328 26.0203C19.7046 25.307 22.1299 23.6258 23.7705 21.2806C23.9012 21.0944 24.1005 20.9677 24.3246 20.9284C24.5487 20.8892 24.7792 20.9405 24.9655 21.0712C25.1517 21.2019 25.2784 21.4012 25.3177 21.6253C25.3569 21.8494 25.3056 22.08 25.1749 22.2662C23.9299 24.0345 22.2856 25.4846 20.3755 26.4988C18.4655 27.513 16.3432 28.0628 14.181 28.1036Z" fill="#227648"/>
<path d="M25.7902 27.7218C25.6933 27.7234 25.597 27.706 25.5068 27.6704C25.4166 27.6348 25.3343 27.5818 25.2646 27.5144C25.1949 27.4471 25.1391 27.3666 25.1005 27.2777C25.0619 27.1888 25.0412 27.0931 25.0395 26.9962L24.9387 21.0631L19.424 21.1568C19.3259 21.1628 19.2277 21.1492 19.135 21.1168C19.0423 21.0844 18.957 21.0338 18.8841 20.9681C18.8111 20.9023 18.7521 20.8226 18.7103 20.7338C18.6685 20.6449 18.6449 20.5486 18.6408 20.4504C18.6367 20.3523 18.6522 20.2544 18.6864 20.1623C18.7206 20.0703 18.7728 19.986 18.84 19.9143C18.9071 19.8427 18.9879 19.7852 19.0776 19.7451C19.1673 19.7051 19.264 19.6833 19.3622 19.6811C19.3743 19.6809 19.3864 19.6807 19.3989 19.6805L25.6521 19.5742C25.7491 19.5725 25.8454 19.5899 25.9356 19.6255C26.0259 19.661 26.1082 19.714 26.178 19.7814C26.2477 19.8488 26.3035 19.9292 26.3421 20.0182C26.3808 20.1071 26.4015 20.2028 26.4032 20.2998L26.5166 26.9703C26.5185 27.0673 26.5012 27.1637 26.4659 27.254C26.4305 27.3443 26.3777 27.4268 26.3104 27.4967C26.2432 27.5666 26.1629 27.6226 26.074 27.6615C25.9851 27.7003 25.8894 27.7213 25.7925 27.7232L25.7902 27.7218Z" fill="transparent"/>
<path d="M25.7902 27.7218C25.6933 27.7234 25.597 27.706 25.5068 27.6704C25.4166 27.6348 25.3343 27.5818 25.2646 27.5144C25.1949 27.4471 25.1391 27.3666 25.1005 27.2777C25.0619 27.1888 25.0412 27.0931 25.0395 26.9962L24.9387 21.0631L19.424 21.1568C19.3259 21.1628 19.2277 21.1492 19.135 21.1168C19.0423 21.0844 18.957 21.0338 18.8841 20.9681C18.8111 20.9023 18.7521 20.8226 18.7103 20.7338C18.6685 20.6449 18.6449 20.5486 18.6408 20.4504C18.6367 20.3523 18.6522 20.2544 18.6864 20.1623C18.7206 20.0703 18.7728 19.986 18.84 19.9143C18.9071 19.8427 18.9879 19.7852 19.0776 19.7451C19.1673 19.7051 19.264 19.6833 19.3622 19.6811C19.3743 19.6809 19.3864 19.6807 19.3989 19.6805L25.6521 19.5742C25.7491 19.5725 25.8454 19.5899 25.9356 19.6255C26.0259 19.661 26.1082 19.714 26.178 19.7814C26.2477 19.8488 26.3035 19.9292 26.3421 20.0182C26.3808 20.1071 26.4015 20.2028 26.4032 20.2998L26.5166 26.9703C26.5185 27.0673 26.5012 27.1637 26.4659 27.254C26.4305 27.3443 26.3777 27.4268 26.3104 27.4967C26.2432 27.5666 26.1629 27.6226 26.074 27.6615C25.9851 27.7003 25.8894 27.7213 25.7925 27.7232L25.7902 27.7218Z" fill="#227648"/>
<path d="M13.796 0.232998C15.9646 0.196574 18.1108 0.675055 20.0585 1.62915C22.0062 2.58324 23.6998 3.98573 25.0002 5.72144C26.3007 7.45716 27.1709 9.47658 27.5393 11.6139C27.9077 13.7512 27.764 15.9454 27.1197 18.0164C27.052 18.2337 26.9007 18.4152 26.6991 18.5209C26.4975 18.6267 26.2622 18.648 26.0449 18.5803C25.8276 18.5125 25.6461 18.3612 25.5403 18.1596C25.4346 17.958 25.4132 17.7227 25.481 17.5054C26.3354 14.7731 26.1842 11.8253 25.0548 9.19478C23.9254 6.56423 21.8922 4.42447 19.3228 3.16221C16.7533 1.89995 13.8171 1.59847 11.0448 2.31226C8.27243 3.02605 5.84687 4.70802 4.20646 7.05417C4.14175 7.14638 4.05951 7.22495 3.96444 7.28537C3.86936 7.3458 3.76332 7.38691 3.65235 7.40636C3.54139 7.4258 3.42769 7.4232 3.31773 7.3987C3.20777 7.3742 3.10372 7.32829 3.01151 7.26357C2.82528 7.13288 2.69859 6.93356 2.65932 6.70946C2.63988 6.5985 2.64248 6.48479 2.66698 6.37484C2.69148 6.26488 2.73739 6.16083 2.80211 6.06861C4.0473 4.30059 5.6916 2.85088 7.60169 1.83699C9.51178 0.82311 11.6339 0.273594 13.796 0.232998Z" fill="transparent"/>
<path d="M13.796 0.232998C15.9646 0.196574 18.1108 0.675055 20.0585 1.62915C22.0062 2.58324 23.6998 3.98573 25.0002 5.72144C26.3007 7.45716 27.1709 9.47658 27.5393 11.6139C27.9077 13.7512 27.764 15.9454 27.1197 18.0164C27.052 18.2337 26.9007 18.4152 26.6991 18.5209C26.4975 18.6267 26.2622 18.648 26.0449 18.5803C25.8276 18.5125 25.6461 18.3612 25.5403 18.1596C25.4346 17.958 25.4132 17.7227 25.481 17.5054C26.3354 14.7731 26.1842 11.8253 25.0548 9.19478C23.9254 6.56423 21.8922 4.42447 19.3228 3.16221C16.7533 1.89995 13.8171 1.59847 11.0448 2.31226C8.27243 3.02605 5.84687 4.70802 4.20646 7.05417C4.14175 7.14638 4.05951 7.22495 3.96444 7.28537C3.86936 7.3458 3.76332 7.38691 3.65235 7.40636C3.54139 7.4258 3.42769 7.4232 3.31773 7.3987C3.20777 7.3742 3.10372 7.32829 3.01151 7.26357C2.82528 7.13288 2.69859 6.93356 2.65932 6.70946C2.63988 6.5985 2.64248 6.48479 2.66698 6.37484C2.69148 6.26488 2.73739 6.16083 2.80211 6.06861C4.0473 4.30059 5.6916 2.85088 7.60169 1.83699C9.51178 0.82311 11.6339 0.273594 13.796 0.232998Z" fill="#227648"/>
<path d="M2.18725 0.613055C2.38302 0.609727 2.5721 0.684305 2.71288 0.820383C2.85367 0.95646 2.93463 1.14289 2.93796 1.33866L3.03884 7.27324L8.55356 7.17949C8.65158 7.17348 8.74981 7.18707 8.84251 7.21948C8.93522 7.25189 9.02052 7.30246 9.09345 7.36823C9.16638 7.434 9.22545 7.51366 9.26723 7.60253C9.309 7.69141 9.33263 7.78772 9.33674 7.88584C9.34085 7.98396 9.32535 8.08191 9.29115 8.17397C9.25695 8.26602 9.20473 8.35034 9.13756 8.42197C9.07038 8.49361 8.9896 8.55113 8.89993 8.59117C8.81026 8.63121 8.7135 8.65297 8.61532 8.65517L2.32579 8.7621C2.22882 8.76379 2.13247 8.74637 2.04224 8.71082C1.95201 8.67527 1.86967 8.62229 1.79992 8.5549C1.73017 8.48752 1.67439 8.40705 1.63574 8.3181C1.5971 8.22915 1.57637 8.13346 1.57472 8.0365L1.46131 1.3656C1.45759 1.1698 1.53178 0.98054 1.66757 0.839427C1.80336 0.698314 1.98962 0.616901 2.18542 0.613087L2.18725 0.613055Z" fill="transparent"/>
<path d="M2.18725 0.613055C2.38302 0.609727 2.5721 0.684305 2.71288 0.820383C2.85367 0.95646 2.93463 1.14289 2.93796 1.33866L3.03884 7.27324L8.55356 7.17949C8.65158 7.17348 8.74981 7.18707 8.84251 7.21948C8.93522 7.25189 9.02052 7.30246 9.09345 7.36823C9.16638 7.434 9.22545 7.51366 9.26723 7.60253C9.309 7.69141 9.33263 7.78772 9.33674 7.88584C9.34085 7.98396 9.32535 8.08191 9.29115 8.17397C9.25695 8.26602 9.20473 8.35034 9.13756 8.42197C9.07038 8.49361 8.9896 8.55113 8.89993 8.59117C8.81026 8.63121 8.7135 8.65297 8.61532 8.65517L2.32579 8.7621C2.22882 8.76379 2.13247 8.74637 2.04224 8.71082C1.95201 8.67527 1.86967 8.62229 1.79992 8.5549C1.73017 8.48752 1.67439 8.40705 1.63574 8.3181C1.5971 8.22915 1.57637 8.13346 1.57472 8.0365L1.46131 1.3656C1.45759 1.1698 1.53178 0.98054 1.66757 0.839427C1.80336 0.698314 1.98962 0.616901 2.18542 0.613087L2.18725 0.613055Z" fill="#227648"/>
</svg>
