<svg width="31" height="30" viewBox="0 0 31 30" fill="none" xmlns="http://www.w3.org/2000/svg">
<path d="M18.5118 8.14988C12.2035 8.14988 7.12004 12.5948 7.12004 18.0749C7.12004 23.555 12.2035 28 18.5118 28C20.7779 28 22.9215 27.4215 24.6977 26.4169C26.29 27.3607 28.0356 27.3302 29.0461 27.2084C29.3217 27.178 29.4136 26.8126 29.1686 26.63C28.1887 25.9906 27.6681 25.1077 27.3619 24.3162C28.9543 22.6112 29.9036 20.4496 29.9036 18.0749C29.9036 12.5948 24.7895 8.14988 18.5118 8.14988ZM19.2774 22.0937C19.2774 22.3372 19.063 22.5504 18.818 22.5504H17.685C17.44 22.5504 17.2256 22.3372 17.2256 22.0937V21.363C17.2256 21.1194 17.44 20.9063 17.685 20.9063H18.818C19.063 20.9063 19.2774 21.1194 19.2774 21.363V22.0937ZM21.0841 17.6792C20.7779 18.1054 20.4104 18.4403 19.9205 18.6838C19.6755 18.8665 19.4917 19.0492 19.3999 19.2319C19.3386 19.3841 19.308 19.5363 19.2774 19.7494C19.2774 19.9016 19.1243 20.0234 18.9711 20.0234H17.5625C17.3787 20.0234 17.2256 19.8712 17.2563 19.6885C17.2869 19.2927 17.3787 18.9883 17.5319 18.7752C17.7156 18.5012 18.0831 18.1663 18.6343 17.8009C18.9099 17.6183 19.1243 17.4356 19.2774 17.1616C19.4305 16.918 19.5224 16.6136 19.5224 16.3091C19.5224 15.9742 19.4305 15.7002 19.2468 15.4871C19.063 15.274 18.818 15.1827 18.4812 15.1827C18.2056 15.1827 17.9912 15.274 17.8075 15.4262C17.685 15.5176 17.6237 15.6698 17.5625 15.822C17.5012 16.0351 17.3175 16.1569 17.1031 16.1569L15.7864 16.1265C15.6332 16.1265 15.4801 15.9742 15.5107 15.822C15.572 15.1218 15.817 14.6042 16.3069 14.2389C16.8582 13.8126 17.5931 13.5995 18.4812 13.5995C19.4611 13.5995 20.1961 13.8431 20.7473 14.3302C21.2985 14.8173 21.5741 15.4567 21.5741 16.2787C21.5435 16.7963 21.3904 17.2834 21.0841 17.6792ZM2.98593 15.3653C1.66914 13.9649 0.903564 12.1686 0.903564 10.2201C0.903564 5.68384 5.12954 2 10.3048 2C13.8265 2 16.9194 3.70492 18.5118 6.20141C11.5298 6.20141 5.77262 11.0117 5.19079 17.1007C3.874 17.8923 2.43472 17.8618 1.60789 17.74C1.36291 17.7096 1.30166 17.4052 1.51602 17.2834C2.2816 16.7354 2.74095 16.0047 2.98593 15.3653Z" fill="currentColor"/>
</svg>
