<svg width="26" height="25" viewBox="0 0 26 25" fill="none" xmlns="http://www.w3.org/2000/svg">
<path d="M9.37773 21.875H15.6277C15.6256 22.7032 15.2957 23.4968 14.7101 24.0824C14.1245 24.668 13.3309 24.9979 12.5027 25C11.6747 24.9976 10.8812 24.6676 10.2957 24.0821C9.71016 23.4966 9.3801 22.7031 9.37773 21.875ZM1.56474 20.313C1.35625 20.3256 1.14746 20.2937 0.952189 20.2196C0.756921 20.1455 0.579566 20.0308 0.431925 19.883C0.284285 19.7353 0.169739 19.5579 0.0957435 19.3626C0.0217476 19.1673 -0.0099628 18.9585 0.00272589 18.75C-0.00981538 18.5416 0.022048 18.3329 0.0961097 18.1377C0.170171 17.9425 0.284789 17.7653 0.432413 17.6177C0.580038 17.47 0.757239 17.3554 0.952433 17.2813C1.14763 17.2073 1.35634 17.1755 1.56474 17.188H2.34574C3.02704 16.6006 3.58499 15.8839 3.98734 15.0794C4.3897 14.2748 4.62846 13.3985 4.68974 12.501V7.81301C4.67958 6.78417 4.87467 5.76363 5.26371 4.81113C5.65276 3.85863 6.22795 2.99329 6.95548 2.26575C7.68302 1.53821 8.54839 0.963097 9.50089 0.574054C10.4534 0.185011 11.4739 -0.010146 12.5027 1.08566e-05C13.5314 -0.010146 14.5518 0.184985 15.5042 0.573978C16.4566 0.962971 17.3218 1.53801 18.0492 2.26545C18.7767 2.9929 19.3518 3.85813 19.7408 4.81051C20.1298 5.7629 20.3249 6.7833 20.3147 7.81201V12.5C20.3761 13.3975 20.615 14.274 21.0175 15.0785C21.42 15.883 21.9782 16.5997 22.6597 17.187H23.4407C23.6492 17.1745 23.858 17.2063 24.0533 17.2804C24.2485 17.3545 24.4259 17.4692 24.5735 17.617C24.7212 17.7647 24.8357 17.9421 24.9097 18.1374C24.9837 18.3327 25.0154 18.5415 25.0027 18.75C25.0153 18.9584 24.9834 19.1671 24.9093 19.3623C24.8353 19.5575 24.7207 19.7347 24.573 19.8824C24.4254 20.03 24.2482 20.1446 24.053 20.2187C23.8578 20.2927 23.6491 20.3245 23.4407 20.312L1.56474 20.313Z" fill="currentColor"/>
</svg>
