<svg width="89" height="90" viewBox="0 0 89 90" fill="none" xmlns="http://www.w3.org/2000/svg">
<path d="M40.1063 59.528C39.5787 59.5369 39.0631 59.3702 38.6406 59.0539L24.7216 48.6507C24.2399 48.2641 23.9273 47.7055 23.8495 47.0928C23.7718 46.4801 23.935 45.8611 24.3048 45.3664C24.6746 44.8717 25.222 44.5399 25.8317 44.4411C26.4413 44.3422 27.0656 44.4839 27.5727 44.8364L39.7357 53.9245L63.265 27.3605C63.4687 27.114 63.72 26.911 64.0038 26.7636C64.2876 26.6163 64.5982 26.5276 64.9171 26.5028C65.2359 26.4781 65.5565 26.5178 65.8596 26.6195C66.1628 26.7213 66.4424 26.8831 66.6817 27.0952C66.9211 27.3073 67.1153 27.5654 67.2527 27.8541C67.3902 28.1429 67.4681 28.4564 67.4818 28.7759C67.4956 29.0954 67.4448 29.4144 67.3327 29.7139C67.2205 30.0133 67.0492 30.2872 66.829 30.519L41.8482 58.727C41.6293 58.974 41.3614 59.1728 41.0615 59.3109C40.7617 59.4489 40.4364 59.5231 40.1063 59.5288V59.528Z" fill="#227648"/>
<path d="M44.9714 89.9039C37.9768 90.0212 31.0541 88.4777 24.7719 85.4002C18.4896 82.3226 13.0269 77.7988 8.83243 72.2002C4.63793 66.6016 1.83125 60.0879 0.642866 53.194C-0.545519 46.3001 -0.0817095 39.2226 1.99621 32.5427C2.10444 32.1956 2.27997 31.8733 2.5128 31.594C2.74562 31.3147 3.03117 31.0841 3.35313 30.9152C3.6751 30.7463 4.02719 30.6424 4.38928 30.6096C4.75138 30.5767 5.1164 30.6155 5.4635 30.7238C5.8106 30.832 6.13298 31.0075 6.41225 31.2404C6.69151 31.4732 6.92217 31.7587 7.09108 32.0807C7.25999 32.4027 7.36382 32.7548 7.39666 33.1169C7.4295 33.479 7.39069 33.844 7.28246 34.1911C4.53047 43.0031 5.02072 52.5088 8.66465 60.9909C12.3086 69.4731 18.8659 76.3724 27.152 80.4424C35.4381 84.5125 44.9066 85.4849 53.847 83.1841C62.7875 80.8832 70.6103 75.4608 75.9022 67.8964C76.1081 67.5921 76.3725 67.3319 76.68 67.1308C76.9876 66.9298 77.332 66.792 77.6934 66.7255C78.0547 66.659 78.4257 66.6651 78.7846 66.7435C79.1435 66.8219 79.4833 66.971 79.784 67.182C80.0848 67.3931 80.3404 67.6619 80.5362 67.9728C80.7319 68.2837 80.8638 68.6305 80.9241 68.9929C80.9845 69.3553 80.972 69.7261 80.8875 70.0837C80.803 70.4412 80.6482 70.7784 80.432 71.0755C76.4161 76.7794 71.1127 81.4567 64.9515 84.7281C58.7904 87.9995 51.9451 89.773 44.9705 89.9048L44.9714 89.9039Z" fill="#227648"/>
<path d="M82.418 88.6722C82.1051 88.6776 81.7943 88.6212 81.5033 88.5063C81.2122 88.3914 80.9467 88.2204 80.7218 88.0028C80.4969 87.7853 80.317 87.5256 80.1926 87.2385C80.0681 86.9515 80.0014 86.6427 79.9963 86.3298L79.6711 67.1922L61.8833 67.4943C61.5666 67.5146 61.2491 67.4714 60.9494 67.3673C60.6496 67.2632 60.3737 67.1003 60.1377 66.8881C59.9018 66.6759 59.7106 66.4188 59.5755 66.1317C59.4403 65.8446 59.3638 65.5335 59.3505 65.2164C59.3372 64.8994 59.3874 64.5829 59.498 64.2855C59.6087 63.9882 59.7777 63.7159 59.995 63.4847C60.2124 63.2535 60.4737 63.0681 60.7637 62.9393C61.0537 62.8105 61.3665 62.7409 61.6837 62.7346H61.8022L81.9725 62.3915C82.2853 62.3861 82.596 62.4424 82.8871 62.5571C83.1781 62.6718 83.4437 62.8427 83.6686 63.06C83.8936 63.2774 84.0736 63.5369 84.1982 63.8238C84.3229 64.1108 84.3898 64.4194 84.3951 64.7322L84.7613 86.2487C84.7735 86.8804 84.5343 87.4909 84.0964 87.9463C83.6584 88.4016 83.0576 88.6643 82.426 88.6767L82.418 88.6722Z" fill="#227648"/>
<path d="M43.7282 0.00623506C50.7228 -0.111216 57.6456 1.43217 63.928 4.50966C70.2104 7.58715 75.6732 12.111 79.8678 17.7096C84.0624 23.3082 86.8691 29.822 88.0576 36.7159C89.246 43.6099 88.7822 50.6875 86.7043 57.3674C86.4857 58.0684 85.9976 58.6539 85.3474 58.995C84.6971 59.3361 83.938 59.4049 83.237 59.1864C82.536 58.9678 81.9505 58.4797 81.6094 57.8294C81.2683 57.1792 81.1994 56.4201 81.418 55.7191C84.1755 46.9055 83.6888 37.3962 80.046 28.9102C76.4032 20.4241 69.8446 13.5213 61.5559 9.44956C53.2671 5.37778 43.7951 4.4057 34.8521 6.70904C25.9091 9.01238 18.0852 14.4392 12.7947 22.0084C12.5888 22.3127 12.3244 22.5729 12.0169 22.774C11.7094 22.975 11.3649 23.1128 11.0035 23.1793C10.6422 23.2458 10.2713 23.2397 9.91231 23.1613C9.55337 23.0829 9.21362 22.9338 8.91289 22.7228C8.61216 22.5117 8.35646 22.2429 8.16072 21.932C7.96497 21.6211 7.83309 21.2743 7.77278 20.9119C7.71246 20.5495 7.72491 20.1787 7.80941 19.8211C7.8939 19.4636 8.04875 19.1264 8.26491 18.8293C12.2815 13.1262 17.5856 8.44994 23.747 5.17959C29.9084 1.90924 36.7538 0.136888 43.7282 0.00623506Z" fill="#227648"/>
<path d="M6.2836 1.2324C6.91482 1.22192 7.52437 1.46247 7.97831 1.9012C8.43224 2.33993 8.69341 2.94094 8.70443 3.57215L9.02964 22.7142L26.8201 22.4157C27.1367 22.3954 27.4543 22.4386 27.754 22.5427C28.0538 22.6468 28.3297 22.8097 28.5656 23.0219C28.8016 23.234 28.9927 23.4912 29.1279 23.7783C29.2631 24.0653 29.3396 24.3765 29.3529 24.6936C29.3662 25.0106 29.316 25.3271 29.2053 25.6245C29.0946 25.9218 28.9257 26.1941 28.7083 26.4253C28.491 26.6565 28.2297 26.8419 27.9397 26.9707C27.6497 27.0995 27.3369 27.1691 27.0197 27.1754L6.73266 27.5202C6.41952 27.526 6.10831 27.47 5.81686 27.3553C5.5254 27.2407 5.25942 27.0697 5.03415 26.8521C4.80887 26.6345 4.62872 26.3746 4.50401 26.0873C4.3793 25.8 4.31248 25.491 4.30738 25.1778L3.94208 3.65947C3.93014 3.02801 4.16943 2.41765 4.60733 1.96254C5.04523 1.50743 5.64592 1.24481 6.27737 1.2324H6.2836Z" fill="#227648"/>
</svg>
