<svg width="13" height="18" viewBox="0 0 13 18" fill="none" xmlns="http://www.w3.org/2000/svg">
<path d="M12.576 16.274V9.824C12.576 9.5922 12.4839 9.3699 12.32 9.20599C12.1561 9.04208 11.9338 8.95 11.702 8.95H11.338V5.05C11.338 3.71066 10.8059 2.42617 9.85889 1.47911C8.91183 0.532052 7.62734 0 6.288 0C4.94866 0 3.66417 0.532052 2.71711 1.47911C1.77005 2.42617 1.238 3.71066 1.238 5.05V8.95H0.874001C0.642201 8.95 0.419896 9.04208 0.255989 9.20599C0.0920823 9.3699 0 9.5922 0 9.824V16.274C0 16.5058 0.0920823 16.7281 0.255989 16.892C0.419896 17.0559 0.642201 17.148 0.874001 17.148H11.702C11.8168 17.148 11.9304 17.1254 12.0365 17.0815C12.1425 17.0375 12.2389 16.9732 12.32 16.892C12.4012 16.8109 12.4655 16.7145 12.5095 16.6085C12.5534 16.5024 12.576 16.3888 12.576 16.274ZM9.814 8.95H2.764V5.05C2.764 4.11524 3.13533 3.21877 3.7963 2.5578C4.45727 1.89683 5.35375 1.5255 6.2885 1.5255C7.22326 1.5255 8.11973 1.89683 8.7807 2.5578C9.44167 3.21877 9.813 4.11524 9.813 5.05L9.814 8.95Z" fill="#222222" fill-opacity="0.73"/>
</svg>
