<svg width="100" height="100" viewBox="0 0 100 100" fill="none" xmlns="http://www.w3.org/2000/svg">
<rect width="100" height="100" fill="transparent"/>
<path d="M61.7178 57.7448L61.7224 57.7477C63.1788 58.6579 63.566 60.4955 62.6298 61.8412L62.6158 61.8614L62.6028 61.8823C61.9939 62.8565 61.0428 63.3297 60.0154 63.3297C59.498 63.3297 58.8826 63.1507 58.3913 62.8445L47.2098 55.7362L47.1989 55.7293L47.1878 55.7226C46.3066 55.1939 45.7559 54.1707 45.7559 53.1447V36.0477C45.7559 34.363 47.1457 32.9731 48.8304 32.9731C50.5151 32.9731 51.9049 34.363 51.9049 36.0477V50.9876V51.5384L52.3704 51.8328L61.7178 57.7448Z" fill="#008062" stroke="transparent" stroke-width="2"/>
<path d="M82.3291 18.419L82.3314 18.429L82.3338 18.439L86.9648 37.0428C87.1905 38.0643 86.2589 38.944 85.2956 38.7162C85.2949 38.7161 85.2942 38.7159 85.2935 38.7157L66.6036 34.1631L66.5961 34.1612L66.5886 34.1595C65.6055 33.9361 65.2286 32.6541 65.9556 31.927L70.3497 27.5329L71.1073 26.7753L70.2993 26.0717C58.1687 15.509 39.7561 15.8311 28.1902 27.397C16.1357 39.4515 16.1358 59.0972 28.1079 71.1519L28.1221 71.1663L28.137 71.18L29.2555 72.2186L29.2554 72.2187L29.265 72.2274C30.5437 73.3843 30.6517 75.3088 29.5147 76.5663C28.9054 77.236 28.056 77.5963 27.2196 77.5963C26.509 77.5963 25.812 77.3689 25.2197 76.8564C24.9274 76.5155 24.5713 76.1788 24.2557 75.8804C24.1089 75.7417 23.9709 75.6112 23.8521 75.4924C9.38299 61.0233 9.38262 37.5296 23.851 23.06C37.8717 9.11817 60.3179 8.18626 74.8464 21.2386L75.5084 21.8333L76.176 21.2448L80.0508 17.8291L80.0744 17.8083L80.0966 17.786C80.8236 17.059 82.1057 17.4359 82.3291 18.419Z" fill="#008062" stroke="transparent" stroke-width="2"/>
<path d="M41.1693 79.6678L41.1917 79.6749L41.2145 79.6808C42.8938 80.1162 43.8591 81.8496 43.3764 83.4184L43.3707 83.437L43.3657 83.4559C42.9935 84.8829 41.6848 85.819 40.3219 85.819C40.1185 85.819 39.8084 85.7628 39.5015 85.6861L39.2833 86.5592L39.5015 85.6861C38.8554 85.5245 38.2654 85.3761 37.6818 85.1573L37.6564 85.1477L37.6305 85.1398C36.0482 84.6529 35.0998 82.8612 35.6631 81.1714L35.6664 81.1615L35.6695 81.1515C36.1563 79.5692 37.948 78.6208 39.6378 79.1841L39.6446 79.1863L39.6514 79.1885L41.1693 79.6678Z" fill="#008062" stroke="transparent" stroke-width="1.8"/>
<path d="M55.3957 80.0993L55.4109 80.097L55.4261 80.0942C57.0949 79.7851 58.7894 80.9023 59.1731 82.5819C59.4763 84.3324 58.4322 85.9227 56.7066 86.3108C56.3772 86.3533 56.0346 86.4138 55.7167 86.4699L55.705 86.472C55.3606 86.5327 55.0441 86.5884 54.7511 86.625L54.6627 86.6361L54.5781 86.6642C54.5422 86.6762 54.4944 86.686 54.4317 86.6917C54.3674 86.6975 54.3051 86.698 54.2236 86.698C52.7706 86.698 51.375 85.5249 51.1189 83.9479C50.8722 82.193 52.062 80.5869 53.7916 80.3398L53.7916 80.3399L53.7979 80.3389L55.3957 80.0993Z" fill="#008062" stroke="transparent" stroke-width="1.8"/>
<path d="M68.2654 74.1771L68.2655 74.1772L68.2757 74.1693C69.6789 73.085 71.7114 73.328 72.659 74.6901L72.679 74.7189L72.7012 74.7461C73.8181 76.1112 73.5652 78.1678 72.2083 79.2163L72.1952 79.2264L72.1825 79.2371C71.7371 79.6082 71.2112 79.9848 70.6501 80.3856C70.0774 80.7644 69.4555 80.9459 68.8439 80.9459C67.8608 80.9459 66.8559 80.4511 66.224 79.5697C65.2198 78.1209 65.5525 76.1346 66.9611 75.1547L66.9743 75.1455L66.9871 75.1359L68.2654 74.1771Z" fill="#008062" stroke="transparent" stroke-width="1.8"/>
</svg>