<svg width="31" height="30" viewBox="0 0 31 30" fill="none" xmlns="http://www.w3.org/2000/svg">
<path d="M10.1348 11.3217H1.89126L6.26642 6H25.5401L29.9159 11.3217H21.6723C21.6338 11.3232 21.5954 11.3267 21.5573 11.3324C21.5382 11.3324 21.5192 11.3324 21.5001 11.3383C21.4584 11.3468 21.4173 11.3579 21.3771 11.3716C21.3599 11.3775 21.3421 11.3805 21.3248 11.3871C21.291 11.4007 21.259 11.4185 21.2271 11.4352C21.2068 11.4464 21.1852 11.4554 21.1656 11.4678C21.1417 11.4839 21.1187 11.5011 21.0967 11.5195C21.0727 11.5379 21.0475 11.5557 21.0247 11.5789C21.002 11.6021 20.9946 11.6128 20.9792 11.63C20.9544 11.6554 20.9314 11.6824 20.9103 11.7108C20.8968 11.7298 20.8863 11.7511 20.8747 11.7701C20.856 11.7993 20.8389 11.8295 20.8236 11.8604C20.8119 11.8898 20.8019 11.9197 20.7935 11.9501C20.7855 11.9745 20.775 11.9964 20.7689 12.0214C20.5204 13.0891 19.9029 14.0433 19.0182 14.727C18.1334 15.4108 17.034 15.7833 15.9008 15.7833C14.7676 15.7833 13.6682 15.4108 12.7834 14.727C11.8987 14.0433 11.2812 13.0891 11.0327 12.0214C11.0284 12.003 11.0198 11.9863 11.0149 11.9679C11.005 11.9309 10.9924 11.8946 10.9774 11.8592C10.965 11.834 10.9512 11.8094 10.9362 11.7856C10.9214 11.7595 10.9079 11.7327 10.8906 11.7084C10.8739 11.6877 10.856 11.6679 10.8371 11.649C10.818 11.6246 10.7974 11.6012 10.7756 11.5789C10.7609 11.5652 10.7443 11.554 10.7283 11.5415C10.6983 11.5156 10.6664 11.4918 10.633 11.4702C10.625 11.4649 10.6157 11.4613 10.6071 11.4565C10.5641 11.431 10.5191 11.4087 10.4724 11.39H10.4688C10.3628 11.3474 10.2496 11.3242 10.1348 11.3217ZM22.3642 13.1035C21.9041 14.4055 21.0338 15.5358 19.8753 16.3361C18.7168 17.1365 17.328 17.5668 15.9036 17.5668C14.4791 17.5668 13.0904 17.1365 11.9318 16.3361C10.7733 15.5358 9.90303 14.4055 9.44292 13.1035H0.903564V21.3273C0.903564 22.0361 1.19514 22.7159 1.71415 23.2172C2.23317 23.7184 2.9371 24 3.67109 24H28.136C28.87 24 29.574 23.7184 30.093 23.2172C30.612 22.7159 30.9036 22.0361 30.9036 21.3273V13.1035H22.3642Z" fill="currentColor"/>
</svg>
