<svg width="31" height="30" viewBox="0 0 31 30" fill="none" xmlns="http://www.w3.org/2000/svg">
<path d="M28.9033 13.7368C28.9033 13.3936 28.6249 13.1146 28.2817 13.1146L25.2876 12.7645C25.0803 12.0651 24.8013 11.3973 24.4563 10.7697L26.4126 8.29518C26.6553 8.05247 26.6553 7.65885 26.4126 7.41614L23.7027 4.70702C23.46 4.46431 23.0658 4.46371 22.8231 4.70672L20.3181 6.68771C19.7367 6.37809 19.1223 6.12398 18.4805 5.93137L18.0932 2.62133C18.0932 2.27811 17.8154 2 17.4722 2H13.6403C13.2971 2 13.0187 2.27811 13.0187 2.62133L12.632 5.93137C12.0311 6.11198 11.4539 6.34749 10.9055 6.63101L8.19943 4.49131C7.95673 4.2486 7.56343 4.2486 7.32042 4.49161L4.61109 7.20133C4.36839 7.44404 4.36809 7.83766 4.61079 8.08037L6.69072 10.7106C6.38981 11.2491 6.13751 11.8179 5.93771 12.4114L2.52547 12.8104C2.18227 12.8104 1.90356 13.0885 1.90356 13.432L1.90386 17.2638C1.90386 17.6073 2.18197 17.8857 2.52517 17.8857L5.74571 18.2619C5.91701 18.9079 6.15071 19.5298 6.43961 20.1184L4.39479 22.7042C4.15209 22.9475 4.15209 23.3408 4.39479 23.5839L7.10442 26.2933C7.34713 26.536 7.74103 26.5363 7.98343 26.2933L10.3904 24.3897C11.0051 24.7539 11.6618 25.0539 12.3512 25.2834L12.7133 28.379C12.7133 28.7222 12.9917 29 13.3349 29L17.1665 28.9997C17.51 28.9997 17.7887 28.721 17.7887 28.3784L18.128 25.4727C18.8745 25.278 19.5858 24.9987 20.2551 24.6486L22.6077 26.5084C22.851 26.7511 23.244 26.7514 23.4867 26.5084L26.196 23.7987C26.4387 23.5557 26.4393 23.162 26.1966 22.9187L24.3948 20.6401C24.7668 19.9825 25.0674 19.2787 25.2867 18.5397L28.2826 18.189C28.6255 18.189 28.9036 17.9109 28.9036 17.5683L28.9033 13.7368ZM15.5555 20.4736C12.893 20.4736 10.7348 18.3153 10.7348 15.6521C10.7348 12.9895 12.8933 10.8309 15.5555 10.8309C18.2186 10.8309 20.3772 12.9895 20.3772 15.6521C20.3772 18.3153 18.2186 20.4736 15.5555 20.4736Z" fill="currentColor"/>
</svg>
