<svg width="31" height="30" viewBox="0 0 31 30" fill="none" xmlns="http://www.w3.org/2000/svg">
<path d="M22.6168 16.645V17.5873C22.6163 18.9604 22.0706 20.2771 21.0997 21.248C20.1288 22.2188 18.8122 22.7645 17.4391 22.765H9.06166V24.2665C9.06258 24.4727 9.00198 24.6745 8.88761 24.846C8.77324 25.0176 8.6103 25.1511 8.41963 25.2296C8.29452 25.2795 8.16079 25.3041 8.02612 25.3021C7.75103 25.3029 7.48675 25.1949 7.2909 25.0018L2.20644 19.9173C2.11043 19.8215 2.03426 19.7077 1.98229 19.5824C1.93032 19.4572 1.90356 19.3229 1.90356 19.1872C1.90356 19.0516 1.93032 18.9173 1.98229 18.7921C2.03426 18.6668 2.11043 18.553 2.20644 18.4572L7.2909 13.3727C7.4352 13.2276 7.61929 13.1284 7.81991 13.0877C8.02054 13.0471 8.22871 13.0668 8.41815 13.1443C8.6076 13.2219 8.76982 13.3538 8.88435 13.5235C8.99888 13.6931 9.06058 13.8929 9.06166 14.0976V15.6095H21.5812C21.8556 15.6103 22.1185 15.7197 22.3126 15.9137C22.5066 16.1077 22.6159 16.3706 22.6168 16.645Z" fill="currentColor"/>
<path d="M30.6008 11.8503L25.5163 16.9347C25.3215 17.1307 25.0574 17.2423 24.7811 17.2454C24.5077 17.2413 24.2467 17.1309 24.0534 16.9376C23.86 16.7442 23.7496 16.4832 23.7455 16.2099V14.698H11.226C10.9516 14.6972 10.6887 14.5878 10.4946 14.3938C10.3006 14.1998 10.1912 13.9368 10.1904 13.6625V12.7201C10.1909 11.3471 10.7366 10.0304 11.7075 9.05952C12.6784 8.08863 13.995 7.54297 15.3681 7.54246H23.7455V6.04094C23.7445 5.83535 23.8048 5.63412 23.9185 5.46285C24.0322 5.29158 24.1944 5.15803 24.3842 5.07919C24.5741 5.00036 24.7831 4.9798 24.9847 5.02014C25.1863 5.06048 25.3714 5.15989 25.5163 5.30572L30.6008 10.3902C30.6968 10.486 30.7729 10.5998 30.8249 10.725C30.8768 10.8503 30.9036 10.9846 30.9036 11.1202C30.9036 11.2558 30.8768 11.3901 30.8249 11.5154C30.7729 11.6407 30.6968 11.7545 30.6008 11.8503Z" fill="currentColor"/>
</svg>
