<svg width="" height="" viewBox="0 0 42 41" fill="none" xmlns="http://www.w3.org/2000/svg">
<path d="M24.6406 9.60865L25.6879 12.1844C25.7286 12.303 25.7225 12.4326 25.6708 12.5468C25.6191 12.661 25.5258 12.7512 25.4098 12.799C25.2939 12.8468 25.1641 12.8485 25.047 12.8038C24.9298 12.7592 24.8341 12.6715 24.7794 12.5587L23.9049 10.4384L18.1264 12.8257C18.0662 12.8536 18.001 12.869 17.9348 12.871C17.8685 12.8731 17.8025 12.8617 17.7407 12.8376C17.6789 12.8136 17.6226 12.7772 17.5752 12.7309C17.5278 12.6845 17.4903 12.629 17.4649 12.5678C17.4395 12.5065 17.4267 12.4408 17.4273 12.3745C17.4279 12.3082 17.442 12.2427 17.4685 12.182C17.4951 12.1212 17.5337 12.0665 17.5819 12.021C17.6302 11.9755 17.6871 11.9403 17.7494 11.9174L23.9834 9.34166C24.044 9.31548 24.1093 9.30163 24.1753 9.30091C24.2413 9.30019 24.3068 9.31262 24.368 9.33747C24.4292 9.36232 24.4848 9.3991 24.5316 9.44565C24.5784 9.49221 24.6154 9.54762 24.6406 9.60865ZM3.51394 12.5692C3.53808 12.6309 3.57447 12.6872 3.62092 12.7346C3.66736 12.7819 3.7229 12.8194 3.78421 12.8448C3.84551 12.8701 3.91131 12.8829 3.97765 12.8821C4.04399 12.8814 4.10951 12.8673 4.17026 12.8407C4.23101 12.814 4.28574 12.7754 4.33117 12.727C4.37659 12.6787 4.41177 12.6216 4.43459 12.5594C4.45742 12.4971 4.46741 12.4308 4.46398 12.3646C4.46055 12.2984 4.44376 12.2335 4.41462 12.1739L4.39891 12.1346L27.107 2.73219L28.2407 5.46235L12.6202 11.92C12.5008 11.9708 12.4064 12.0667 12.3573 12.1868C12.3083 12.3069 12.3087 12.4415 12.3584 12.5613C12.4108 12.6799 12.5073 12.7736 12.6275 12.8224C12.7477 12.8713 12.8821 12.8715 13.0025 12.8231L28.6177 6.36281L31.1862 12.5535C31.2109 12.613 31.247 12.6671 31.2927 12.7125C31.3384 12.758 31.3926 12.7939 31.4523 12.8183C31.512 12.8426 31.5759 12.8549 31.6403 12.8544C31.7048 12.8539 31.7685 12.8405 31.8277 12.8152C31.9471 12.7644 32.0416 12.6685 32.0906 12.5484C32.1396 12.4283 32.1392 12.2937 32.0895 12.1739L27.4448 0.983627C27.3715 0.805175 27.2634 0.643071 27.1269 0.506741C26.9904 0.370411 26.8281 0.262572 26.6495 0.189501C26.4709 0.11643 26.2796 0.0795821 26.0867 0.0810997C25.8937 0.0826174 25.703 0.122473 25.5256 0.198344L3.71816 9.22648C3.5403 9.29979 3.37874 9.40761 3.24282 9.54372C3.1069 9.67983 2.99931 9.84152 2.92627 10.0194C2.85323 10.1974 2.81619 10.388 2.81729 10.5803C2.81839 10.7727 2.85761 10.9629 2.93268 11.14L3.51394 12.5692ZM4.09519 10.1322L25.9157 1.10404C25.9741 1.07967 26.0368 1.06712 26.1001 1.06711C26.1634 1.06709 26.2261 1.07961 26.2845 1.10395C26.3429 1.12829 26.3959 1.16396 26.4405 1.20891C26.485 1.25385 26.5203 1.30717 26.5441 1.3658L26.73 1.81865L4.02188 11.2211L3.82551 10.7525C3.80148 10.6942 3.78941 10.6317 3.79002 10.5686C3.79063 10.5055 3.8039 10.4432 3.82905 10.3853C3.8542 10.3275 3.89071 10.2752 3.93643 10.2318C3.98215 10.1883 4.03614 10.1544 4.09519 10.1322ZM39.6851 22.6967H39.1929V16.3097C39.1922 15.6581 38.9329 15.0333 38.472 14.5725C38.0111 14.1117 37.3862 13.8525 36.7343 13.8518H35.2576V12.3833C35.2569 11.7316 34.9977 11.1069 34.5368 10.6461C34.0759 10.1853 33.4509 9.92607 32.7991 9.92538C32.7316 9.92045 32.6638 9.92948 32.6 9.95191C32.5362 9.97435 32.4776 10.0097 32.4281 10.0557C32.3785 10.1018 32.339 10.1576 32.312 10.2196C32.2849 10.2816 32.271 10.3485 32.271 10.4162C32.271 10.4838 32.2849 10.5507 32.312 10.6128C32.339 10.6748 32.3785 10.7306 32.4281 10.7766C32.4776 10.8227 32.5362 10.858 32.6 10.8805C32.6638 10.9029 32.7316 10.9119 32.7991 10.907C33.1905 10.9077 33.5657 11.0634 33.8425 11.3402C34.1193 11.6169 34.2751 11.992 34.2758 12.3833V13.857H3.29663C2.90589 13.8563 2.53135 13.7009 2.25505 13.4246C1.97876 13.1484 1.82324 12.774 1.82255 12.3833C1.81968 12.1753 1.86446 11.9693 1.95346 11.7813C1.99956 11.6643 1.99911 11.5341 1.95223 11.4174C1.90535 11.3008 1.81558 11.2065 1.70134 11.1539C1.58711 11.1013 1.45708 11.0944 1.33793 11.1347C1.21879 11.1749 1.11956 11.2592 1.06064 11.3703C0.911427 11.687 0.835365 12.0332 0.838083 12.3833V37.9443C0.838776 38.596 1.09803 39.2207 1.55894 39.6815C2.01986 40.1423 2.64479 40.4015 3.29663 40.4022H36.7343C37.3862 40.4015 38.0111 40.1423 38.472 39.6815C38.9329 39.2207 39.1922 38.596 39.1929 37.9443V31.5442H39.6851C40.0763 31.5435 40.4512 31.3877 40.7276 31.1109C41.004 30.8341 41.1592 30.459 41.1592 30.0679V24.1626C41.1571 23.7728 41.001 23.3997 40.7248 23.1246C40.4487 22.8495 40.0749 22.6948 39.6851 22.6941V22.6967ZM38.2084 37.9364C38.2077 38.3271 38.0522 38.7015 37.7759 38.9777C37.4996 39.254 37.1251 39.4095 36.7343 39.4101H3.29663C2.90568 39.4101 2.53074 39.2549 2.25429 38.9785C1.97785 38.7021 1.82255 38.3273 1.82255 37.9364V14.3334C2.24601 14.6564 2.76399 14.8312 3.29663 14.8308H36.7343C37.1251 14.8315 37.4996 14.987 37.7759 15.2632C38.0522 15.5394 38.2077 15.9139 38.2084 16.3045V22.6941H31.8172C31.4258 22.6948 31.0506 22.8505 30.7738 23.1273C30.497 23.404 30.3412 23.7791 30.3405 24.1704V30.0679C30.3412 30.4592 30.497 30.8343 30.7738 31.1111C31.0506 31.3878 31.4258 31.5435 31.8172 31.5442H38.2084V37.9364ZM40.1747 30.0705C40.1747 30.2006 40.1232 30.3254 40.0315 30.4176C39.9397 30.5098 39.8152 30.5619 39.6851 30.5626H31.8172C31.6867 30.5626 31.5615 30.5108 31.4692 30.4185C31.3769 30.3262 31.325 30.201 31.325 30.0705V24.1626C31.325 24.032 31.3769 23.9069 31.4692 23.8146C31.5615 23.7223 31.6867 23.6705 31.8172 23.6705H39.6851C39.8152 23.6711 39.9397 23.7233 40.0315 23.8155C40.1232 23.9077 40.1747 24.0325 40.1747 24.1626V30.0705Z" fill="white" fill-opacity="0.7"/>
</svg>
